<svg width="40" height="32" viewBox="0 0 40 32" fill="none" xmlns="http://www.w3.org/2000/svg">
<path fill-rule="evenodd" clip-rule="evenodd" d="M20 29.75C27.5939 29.75 33.75 23.5939 33.75 16C33.75 8.40608 27.5939 2.25 20 2.25C12.4061 2.25 6.25 8.40608 6.25 16C6.25 23.5939 12.4061 29.75 20 29.75ZM16.6391 5.02882C17.3891 4.79933 18.1719 4.64464 18.9786 4.57346V9.39997H15.5022C15.7988 8.02834 16.1781 6.58487 16.6391 5.02882ZM13.4796 9.39997C13.7084 8.32852 13.9867 7.21329 14.3138 6.03484C12.848 6.87304 11.5849 8.02532 10.6163 9.39997H13.4796ZM9.53898 11.2857H13.1212C12.9075 12.581 12.7732 13.8251 12.7196 15.0571H8.5668C8.6754 13.7223 9.01252 12.4521 9.53898 11.2857ZM15.1396 11.2857H18.9786V15.0571H14.7352C14.7886 13.8252 14.9237 12.5811 15.1396 11.2857ZM21.0214 11.2857V15.0571H25.2946C25.2482 13.8237 25.1199 12.5796 24.9104 11.2857H21.0214ZM26.9248 11.2857H30.4611C30.9875 12.4521 31.3247 13.7223 31.4333 15.0571H27.3065C27.2598 13.8235 27.1321 12.5795 26.9248 11.2857ZM26.5747 9.39997C26.3531 8.34176 26.0828 7.24145 25.7647 6.08008C27.1971 6.9143 28.4325 8.04989 29.3838 9.39997H26.5747ZM24.5564 9.39997H21.0214V4.57345C21.8571 4.64719 22.6671 4.81053 23.4416 5.05381C23.895 6.59978 24.2669 8.03496 24.5564 9.39997ZM8.56679 16.9428H12.7007C12.7301 18.1787 12.8415 19.4226 13.0363 20.7143H9.53894C9.01249 19.5479 8.67538 18.2777 8.56679 16.9428ZM10.6162 22.6H13.3722C13.5857 23.6465 13.85 24.7333 14.1656 25.879C12.7627 25.0487 11.5521 23.9281 10.6162 22.6ZM18.9786 22.6H15.4002C15.6815 23.9612 16.049 25.3905 16.5038 26.9289C17.2948 27.1818 18.1232 27.3511 18.9786 27.4266V22.6ZM15.0597 20.7143H18.9786V16.9428H14.7176C14.7483 18.1789 14.862 19.4228 15.0597 20.7143ZM21.0214 27.4266V22.6H24.5918C24.3053 23.9625 23.9332 25.3942 23.4744 26.9359C22.6899 27.1849 21.8689 27.3518 21.0214 27.4266ZM21.0214 20.7143H24.94C25.1437 19.4213 25.2639 18.1773 25.3015 16.9428H21.0214V20.7143ZM27.3148 16.9428C27.2786 18.1771 27.1608 19.4211 26.96 20.7143H30.4611C30.9876 19.5479 31.3247 18.2777 31.4333 16.9428H27.3148ZM25.8093 25.8939C26.1294 24.7422 26.3983 23.6505 26.6164 22.6H29.3839C28.4424 23.9361 27.2228 25.0621 25.8093 25.8939Z" fill="white"/>
</svg>
