<svg width="28" height="34" viewBox="0 0 28 34" fill="none" xmlns="http://www.w3.org/2000/svg">
<path d="M27.25 6.4C24.984 5.79521 22.7702 5.00935 20.63 4.05C18.5244 3.13662 16.4918 2.06348 14.55 0.84L14 0.5L13.46 0.85C11.5182 2.07348 9.48556 3.14662 7.38 4.06C5.23629 5.01644 3.01915 5.79896 0.75 6.4L0 6.59V14.93C0 28.32 13.53 33.33 13.66 33.38L14 33.5L14.34 33.38C14.48 33.38 28 28.33 28 14.93V6.59L27.25 6.4ZM22.68 13.05L11.51 23.9L5.19 17.57C4.92478 17.3048 4.77579 16.9451 4.77579 16.57C4.77579 16.1949 4.92478 15.8352 5.19 15.57C5.45522 15.3048 5.81493 15.1558 6.19 15.1558C6.56507 15.1558 6.92478 15.3048 7.19 15.57L11.54 20L20.73 11C20.8613 10.8687 21.0172 10.7645 21.1888 10.6934C21.3604 10.6224 21.5443 10.5858 21.73 10.5858C21.9157 10.5858 22.0996 10.6224 22.2712 10.6934C22.4428 10.7645 22.5987 10.8687 22.73 11C22.8613 11.1313 22.9655 11.2872 23.0366 11.4588C23.1076 11.6304 23.1442 11.8143 23.1442 12C23.1442 12.1857 23.1076 12.3696 23.0366 12.5412C22.9655 12.7128 22.8613 12.8687 22.73 13L22.68 13.05Z" fill="#56CCF2"/>
</svg>
