<svg width="41" height="41" viewBox="0 0 41 41" fill="none" xmlns="http://www.w3.org/2000/svg">
<path d="M7.175 0C3.198 0 0 3.198 0 7.175V33.825C0 37.802 3.198 41 7.175 41H28.7L41 28.7V7.175C41 3.198 37.802 0 33.825 0H7.175ZM7.6875 4.1H33.3125C34.264 4.1 35.1765 4.47797 35.8492 5.15075C36.522 5.82354 36.9 6.73604 36.9 7.6875V26.65H33.825C29.848 26.65 26.65 29.848 26.65 33.825V36.9H7.6875C6.73604 36.9 5.82354 36.522 5.15075 35.8492C4.47797 35.1765 4.1 34.264 4.1 33.3125V7.6875C4.1 6.73604 4.47797 5.82354 5.15075 5.15075C5.82354 4.47797 6.73604 4.1 7.6875 4.1ZM25.502 9.7785C25.174 9.7785 24.846 9.8195 24.5385 9.9015C22.6115 10.4345 21.525 12.4025 22.017 14.35C22.1195 14.6575 22.263 14.965 22.4475 15.252L29.069 13.448C29.069 13.0995 29.028 12.751 28.946 12.4025C28.5155 10.865 27.101 9.7785 25.502 9.7785ZM12.6485 13.325C12.3 13.325 11.9925 13.325 11.685 13.4275C9.7785 13.9605 8.651 15.9285 9.1635 17.835C9.225 18.163 9.4095 18.45 9.594 18.778L16.2155 16.974C16.2155 16.6255 16.1745 16.277 16.0925 15.949C15.8919 15.1909 15.4444 14.5214 14.8207 14.0461C14.197 13.5709 13.4326 13.3172 12.6485 13.325ZM30.176 18.983L11.4595 24.1285C12.7887 25.6666 14.5251 26.7982 16.469 27.3929C18.4129 27.9877 20.4852 28.0215 22.4475 27.4905C24.4054 26.9427 26.1691 25.8539 27.5362 24.3491C28.9032 22.8442 29.8182 20.9843 30.176 18.983Z" fill="#56CCF2"/>
</svg>
