<svg width="61" height="61" viewBox="0 0 61 61" fill="none" xmlns="http://www.w3.org/2000/svg">
<path d="M51.5617 48.3786L60.3672 57.1795C60.7778 57.6047 61.005 58.1742 60.9999 58.7652C60.9948 59.3563 60.7577 59.9217 60.3397 60.3397C59.9217 60.7577 59.3563 60.9948 58.7652 60.9999C58.1742 61.005 57.6047 60.7778 57.1795 60.3672L48.3741 51.5617C42.6199 56.4917 35.1799 59.0014 27.6152 58.5641C20.0506 58.1268 12.9493 54.7766 7.80152 49.2164C2.65374 43.6562 -0.140396 36.3183 0.00543415 28.7424C0.151264 21.1666 3.22572 13.9416 8.58367 8.58367C13.9416 3.22572 21.1666 0.151264 28.7424 0.00543415C36.3183 -0.140396 43.6562 2.65374 49.2164 7.80152C54.7766 12.9493 58.1268 20.0506 58.5641 27.6152C59.0014 35.1799 56.4917 42.6199 51.5617 48.3741V48.3786ZM29.3068 54.1046C35.8836 54.1046 42.191 51.492 46.8415 46.8415C51.492 42.191 54.1046 35.8836 54.1046 29.3068C54.1046 22.7301 51.492 16.4226 46.8415 11.7722C42.191 7.12167 35.8836 4.50905 29.3068 4.50905C22.7301 4.50905 16.4226 7.12167 11.7722 11.7722C7.12167 16.4226 4.50905 22.7301 4.50905 29.3068C4.50905 35.8836 7.12167 42.191 11.7722 46.8415C16.4226 51.492 22.7301 54.1046 29.3068 54.1046Z" fill="#E8D95F"/>
<path d="M49.1737 23.987H44.5246L43.2324 20.7418C41.9045 17.4054 38.7354 15.25 35.1579 15.25H25.2958C21.7191 15.25 18.5492 17.4054 17.2206 20.7418L15.9284 23.987H11.28C10.6735 23.987 10.2286 24.5596 10.3761 25.1501L10.842 27.0223C10.9453 27.4389 11.3181 27.7314 11.7459 27.7314H13.3044C12.2616 28.6464 11.5898 29.9765 11.5898 31.4758V35.2202C11.5898 36.4777 12.0682 37.6128 12.8323 38.4911V42.7091C12.8323 44.0875 13.9451 45.2054 15.3172 45.2054H17.8022C19.1743 45.2054 20.2871 44.0875 20.2871 42.7091V40.2128H40.1666V42.7091C40.1666 44.0875 41.2794 45.2054 42.6516 45.2054H45.1365C46.5086 45.2054 47.6214 44.0875 47.6214 42.7091V38.4911C48.3855 37.6135 48.8639 36.4785 48.8639 35.2202V31.4758C48.8639 29.9765 48.1922 28.6464 47.1501 27.7314H48.7086C49.1365 27.7314 49.5092 27.4389 49.6125 27.0223L50.0784 25.1501C50.2252 24.5596 49.7802 23.987 49.1737 23.987ZM21.8348 22.5961C22.4009 21.1748 23.7715 20.2426 25.2958 20.2426H35.1579C36.6823 20.2426 38.0529 21.1748 38.619 22.5961L40.1666 26.4833H20.2871L21.8348 22.5961ZM17.8022 35.2046C16.3112 35.2046 15.3172 34.2092 15.3172 32.7162C15.3172 31.2231 16.3112 30.2277 17.8022 30.2277C19.2931 30.2277 21.5296 32.4673 21.5296 33.9604C21.5296 35.4535 19.2931 35.2046 17.8022 35.2046ZM42.6516 35.2046C41.1606 35.2046 38.9241 35.4535 38.9241 33.9604C38.9241 32.4673 41.1606 30.2277 42.6516 30.2277C44.1425 30.2277 45.1365 31.2231 45.1365 32.7162C45.1365 34.2092 44.1425 35.2046 42.6516 35.2046Z" fill="#E8D95F"/>
</svg>
