<svg width="32" height="32" viewBox="0 0 32 32" fill="none" xmlns="http://www.w3.org/2000/svg">
<path d="M20.9287 27.9004H24.414C25.3384 27.9004 26.2249 27.5332 26.8786 26.8795C27.5322 26.2259 27.8994 25.3394 27.8994 24.415V20.9297" stroke="white" stroke-width="3" stroke-linecap="round" stroke-linejoin="round"/>
<path d="M27.8994 10.9707V7.48534C27.8994 6.56097 27.5322 5.67446 26.8786 5.02083C26.2249 4.3672 25.3384 4 24.414 4H20.9287" stroke="white" stroke-width="3" stroke-linecap="round" stroke-linejoin="round"/>
<path d="M10.9707 27.9004H7.48534C6.56097 27.9004 5.67446 27.5332 5.02083 26.8795C4.3672 26.2259 4 25.3394 4 24.415V20.9297" stroke="white" stroke-width="3" stroke-linecap="round" stroke-linejoin="round"/>
<path d="M4 10.9707V7.48534C4 6.56097 4.3672 5.67446 5.02083 5.02083C5.67446 4.3672 6.56097 4 7.48534 4H10.9707" stroke="white" stroke-width="3" stroke-linecap="round" stroke-linejoin="round"/>
</svg>
