<svg width="56" height="68" viewBox="0 0 56 68" fill="none" xmlns="http://www.w3.org/2000/svg">
<g clip-path="url(#clip0_4363_285293)">
<path d="M47.8512 68.1739H7.7853C5.9101 68.1739 4.1117 67.429 2.78573 66.103C1.45976 64.777 0.714844 62.9786 0.714844 61.1034V6.89663C0.714844 5.02143 1.45976 3.22303 2.78573 1.89706C4.1117 0.571093 5.9101 -0.173828 7.7853 -0.173828H40.7808L54.9217 13.9671V61.1034C54.9217 62.9786 54.1767 64.777 52.8508 66.103C51.5248 67.429 49.7264 68.1739 47.8512 68.1739Z" fill="#BDBDBD"/>
<path d="M0.714844 49.3184H54.9217V61.1024C54.9217 62.9776 54.1767 64.776 52.8508 66.102C51.5248 67.428 49.7264 68.1729 47.8512 68.1729H7.7853C5.9101 68.1729 4.1117 67.428 2.78573 66.102C1.45976 64.776 0.714844 62.9776 0.714844 61.1024V49.3184Z" fill="#DDDDDD"/>
<path d="M54.9222 13.9671H47.8517C45.9765 13.9671 44.1781 13.2222 42.8521 11.8962C41.5262 10.5702 40.7813 8.77183 40.7812 6.89663V-0.173828L54.9222 13.9671Z" fill="#BDBDBD"/>
<path d="M12.5 16.3242H43.1386V39.8924H12.5V16.3242Z" fill="white"/>
<path d="M21.9273 28.1074L27.8193 35.1779L34.8898 32.8211L43.1386 39.8915H12.5L21.9273 28.1074Z" fill="#BDBDBD"/>
<path d="M32.5326 28.1082C33.8342 28.1082 34.8894 27.053 34.8894 25.7513C34.8894 24.4497 33.8342 23.3945 32.5326 23.3945C31.231 23.3945 30.1758 24.4497 30.1758 25.7513C30.1758 27.053 31.231 28.1082 32.5326 28.1082Z" fill="#BDBDBD"/>
<path d="M17.68 55H22.38V56.15H19.12V58.02H22.16V59.17H19.12V62H17.68V55ZM23.6422 55H25.0722V62H23.6422V55ZM26.6546 55H28.0946V60.85H31.3946V62H26.6546V55ZM32.3089 55H36.9589V56.15H33.7489V57.75H36.6089V58.9H33.7489V60.85H36.9589V62H32.3089V55Z" fill="white"/>
</g>
<defs>
<clipPath id="clip0_4363_285293">
<rect width="55.6364" height="68" fill="white"/>
</clipPath>
</defs>
</svg>
