<svg width="31" height="31" viewBox="0 0 31 31" fill="none" xmlns="http://www.w3.org/2000/svg">
<path fill-rule="evenodd" clip-rule="evenodd" d="M17.4353 4.5C17.4353 3.94772 17.883 3.5 18.4353 3.5H18.6334C19.1857 3.5 19.6334 3.94772 19.6334 4.5V7.44574C19.6334 7.99803 19.1857 8.44574 18.6334 8.44574H18.4353C17.883 8.44574 17.4353 7.99803 17.4353 7.44574V4.5ZM16.8858 4.95381C16.8858 4.30871 16.2796 3.83077 15.6889 4.09015C13.4715 5.0639 11.9401 7.14041 11.9401 9.54479L11.9401 9.54483H12.2563L12.2563 9.54484H11.3906C11.0871 9.54484 10.8411 9.79087 10.8411 10.0944C10.8411 10.3979 11.0871 10.6439 11.3906 10.6439H25.6783C25.9818 10.6439 26.2278 10.3979 26.2278 10.0944C26.2278 9.79087 25.9818 9.54484 25.6783 9.54484L25.1287 9.54483L25.1287 9.54479C25.1287 7.14044 23.5973 5.06395 21.3799 4.09018C20.7892 3.83079 20.183 4.30873 20.183 4.95383V7.99533C20.183 8.54761 19.7353 8.99533 19.183 8.99533H17.8858C17.3335 8.99533 16.8858 8.54761 16.8858 7.99533V4.95381ZM18.5001 17.5975C14.9811 17.5975 12.1225 14.7389 12.0722 11.1933H24.928C24.8777 14.7389 22.0191 17.5975 18.5001 17.5975ZM18.5344 14.4906L18.4955 14.4905H18.5733L18.5344 14.4906ZM8.96655 21.3119C8.7972 21.7896 8.69133 22.2863 8.65603 22.7969H8.64291V23.1776V25.1297C8.64291 26.2343 9.53834 27.1297 10.6429 27.1297H26.3572C27.4618 27.1297 28.3572 26.2343 28.3572 25.1297V23.1776V22.7969H28.3441C28.1903 20.5728 26.6974 18.6113 24.4518 17.3475C23.1324 18.7358 20.9584 19.3307 18.5 19.3307C16.0417 19.3307 13.8677 18.7358 12.5483 17.3475C11.7152 17.8163 10.9858 18.3812 10.3898 19.0198L12.935 21.3586C13.4739 21.8539 13.5094 22.6924 13.0141 23.2313C12.5188 23.7703 11.6804 23.8057 11.1414 23.3105L8.96655 21.3119ZM3.90387 16.4681C3.44838 16.0495 2.77073 16.3263 3.01872 16.893C3.14764 17.1876 3.33978 17.4623 3.59379 17.6958C4.33752 18.3792 5.38963 18.5042 6.20947 18.0826L7.56188 19.3254L6.59707 20.3359L5.8637 19.6356L5.1433 19.9138L5.46057 20.2167L3.15706 22.6293C2.697 23.1111 2.71466 23.8747 3.1965 24.3347C3.67834 24.7948 4.4419 24.7771 4.90195 24.2953L7.20546 21.8827L7.5225 22.1855L7.76706 21.453L6.98555 20.7068L7.95744 19.6889L11.5278 22.9697C11.8674 23.2819 12.3958 23.2596 12.7079 22.9199C13.0201 22.5802 12.9978 22.0518 12.6581 21.7397L9.11126 18.4804L10.9007 16.6062L11.0948 16.7916L12.3255 15.5026L12.4052 15.0859L11.9613 14.6621L11.5487 14.7609L10.318 16.0499L10.5122 16.2353L8.7157 18.1169L7.28205 16.7995C7.53096 15.9869 7.2973 15.0491 6.60798 14.4157C6.3539 14.1822 6.06383 14.0139 5.75932 13.9103C5.17363 13.711 4.95505 14.4097 5.41058 14.8283C5.73394 15.1254 5.7552 15.6284 5.45805 15.9518L5.02724 16.4206C4.73014 16.7439 4.22719 16.7652 3.90387 16.4681ZM12.2813 22.5278C12.4546 22.3392 12.4359 22.0398 12.2394 21.8593C12.0429 21.6787 11.7431 21.6853 11.5697 21.874C11.3964 22.0626 11.4151 22.3619 11.6116 22.5425C11.8081 22.7231 12.1079 22.7165 12.2813 22.5278ZM5.97426 20.9489L5.65704 20.6461L3.42688 22.9818C3.2596 23.157 3.26602 23.4346 3.44122 23.6019L5.97426 20.9489Z" fill="#282828"/>
</svg>
