<svg xmlns="http://www.w3.org/2000/svg" width="30" height="31" viewBox="0 0 30 31">
  <path fill-rule="evenodd" clip-rule="evenodd" d="M5.6875 6.125C5.13522 6.125 4.6875 6.57271 4.6875 7.125V9.07143V9.54464V12.6646C4.6875 13.3384 5.42411 13.6752 6.16071 13.6752V22.3304H5.6875C5.13522 22.3304 4.6875 22.7781 4.6875 23.3304V23.5402C4.6875 24.0925 5.13522 24.5402 5.6875 24.5402H24.3125C24.8648 24.5402 25.3125 24.0925 25.3125 23.5402V23.3304C25.3125 22.7781 24.8648 22.3304 24.3125 22.3304H23.8393V13.6752C24.5759 13.6752 25.3125 13.3383 25.3125 12.6646V9.54464V9.0714V7.125C25.3125 6.57272 24.8648 6.125 24.3125 6.125H5.6875ZM22.3661 10.5446H22.3658V12.053C22.3659 12.053 22.366 12.0529 22.3661 12.0529V10.5446ZM21.6295 13.5532C20.7615 13.8669 19.4339 13.5756 19.4195 12.6793C19.3982 14.012 16.4732 14.0071 16.4732 12.6646C16.4732 14.0087 13.5416 14.0121 13.5268 12.6748C13.5121 14.0121 10.5805 14.0087 10.5805 12.6646V10.5446H10.5802V12.6646C10.5802 13.5723 9.24327 13.8685 8.37054 13.5533V22.3304H14.2982C14.2754 22.2464 14.2632 22.1581 14.2632 22.067V16.7009C14.2632 16.1486 14.7109 15.7009 15.2632 15.7009H19.156C19.7083 15.7009 20.156 16.1486 20.156 16.7009V22.067C20.156 22.1581 20.1438 22.2464 20.121 22.3304H21.6295V13.5532ZM15.7369 18.1741C15.7369 17.6218 16.1846 17.1741 16.7369 17.1741H17.6834C18.2356 17.1741 18.6834 17.6218 18.6834 18.1741V21.3303C18.6834 21.8826 18.2356 22.3303 17.6834 22.3303H16.7369C16.1846 22.3303 15.7369 21.8826 15.7369 21.3303V18.1741ZM13.5265 16.7009C13.5265 16.1486 13.0788 15.7009 12.5265 15.7009H10.1069C9.55462 15.7009 9.1069 16.1486 9.1069 16.7009V17.6473C9.1069 18.1996 9.55462 18.6473 10.1069 18.6473H12.5265C13.0788 18.6473 13.5265 18.1996 13.5265 17.6473V16.7009Z" fill="#e8d95f"/>

</svg>
