<svg width="44" height="44" viewBox="0 0 44 44" fill="none" xmlns="http://www.w3.org/2000/svg">
<path fill-rule="evenodd" clip-rule="evenodd" d="M15.4414 28.3311C15.8109 28.4233 16.1869 28.5044 16.5689 28.574C16.829 30.3441 17.8128 31.9476 19.2897 33.2087L18.6481 38.2946L24.0745 35.5975C25.1525 35.8665 26.304 36.0119 27.5 36.0119C33.5751 36.0119 38.5 32.2596 38.5 27.631C38.5 24.8083 36.6685 22.3115 33.8616 20.7929C34.1963 19.8636 34.375 18.8852 34.375 17.875C34.375 11.7999 27.9111 6.875 19.9375 6.875C11.9639 6.875 5.5 11.7999 5.5 17.875C5.5 20.6863 6.88415 23.2512 9.16154 25.1958L8.31947 31.871L15.4414 28.3311ZM31.3159 19.768C31.5181 19.1602 31.625 18.5264 31.625 17.875C31.625 13.3187 26.3923 9.625 19.9375 9.625C13.4827 9.625 8.25 13.3187 8.25 17.875C8.25 20.2059 9.61944 22.3111 11.8214 23.8114L11.3217 27.7721L14.8927 25.319C15.4885 25.5205 16.1122 25.6875 16.7586 25.8162C17.6661 22.6841 20.8732 20.2099 24.9619 19.4742C24.8262 19.1993 24.75 18.8898 24.75 18.5625C24.75 17.4234 25.6734 16.5 26.8125 16.5C27.9516 16.5 28.875 17.4234 28.875 18.5625C28.875 18.8233 28.8266 19.0728 28.7383 19.3025C29.6344 19.379 30.4981 19.5375 31.3159 19.768ZM13.0625 20.625C14.2016 20.625 15.125 19.7016 15.125 18.5625C15.125 17.4234 14.2016 16.5 13.0625 16.5C11.9234 16.5 11 17.4234 11 18.5625C11 19.7016 11.9234 20.625 13.0625 20.625ZM22 18.5625C22 19.7016 21.0766 20.625 19.9375 20.625C18.7984 20.625 17.875 19.7016 17.875 18.5625C17.875 17.4234 18.7984 16.5 19.9375 16.5C21.0766 16.5 22 17.4234 22 18.5625ZM36.4048 27.631C36.4048 31.1025 32.418 33.9167 27.5 33.9167C26.1234 33.9167 24.8197 33.6962 23.6561 33.3025L20.9355 35.1714L21.3162 32.1538C19.6386 31.0107 18.5952 29.4068 18.5952 27.631C18.5952 24.1594 22.582 21.3452 27.5 21.3452C32.418 21.3452 36.4048 24.1594 36.4048 27.631ZM23.8333 28.1548C23.8333 29.0226 23.1298 29.7262 22.2619 29.7262C21.394 29.7262 20.6905 29.0226 20.6905 28.1548C20.6905 27.2869 21.394 26.5833 22.2619 26.5833C23.1298 26.5833 23.8333 27.2869 23.8333 28.1548ZM27.5 29.7262C28.3679 29.7262 29.0714 29.0226 29.0714 28.1548C29.0714 27.2869 28.3679 26.5833 27.5 26.5833C26.6321 26.5833 25.9286 27.2869 25.9286 28.1548C25.9286 29.0226 26.6321 29.7262 27.5 29.7262ZM34.3095 28.1548C34.3095 29.0226 33.606 29.7262 32.7381 29.7262C31.8702 29.7262 31.1667 29.0226 31.1667 28.1548C31.1667 27.2869 31.8702 26.5833 32.7381 26.5833C33.606 26.5833 34.3095 27.2869 34.3095 28.1548Z" fill="white"/>
</svg>
