<svg width="41" height="41" viewBox="0 0 41 41" fill="none" xmlns="http://www.w3.org/2000/svg">
<path d="M33.825 0H7.175C3.28 0 0 3.28 0 7.175V33.825C0 37.72 3.28 41 7.175 41H28.7L41 28.7V7.175C41 3.28 37.72 0 33.825 0ZM36.9 26.65H33.825C29.93 26.65 26.65 29.93 26.65 33.825V36.9H7.79C5.74 36.9 4.1 35.26 4.1 33.21V7.79C4.1 5.74 5.74 4.1 7.79 4.1H33.415C35.465 4.1 37.105 5.74 37.105 7.79V26.65H36.9ZM27.06 12.71L30.135 15.785L17.835 28.085L10.66 20.91L13.735 17.835L17.835 21.935L27.06 12.71Z" fill="#6FCF97"/>
</svg>
