<svg width="37" height="32" viewBox="0 0 37 32" fill="none" xmlns="http://www.w3.org/2000/svg">
<path d="M30.3217 22.2644C28.6 20.1654 27.3844 19.0968 27.3844 13.3099C27.3844 8.0106 24.6677 6.1226 22.4316 5.20565C22.1346 5.0841 21.855 4.80494 21.7645 4.50108C21.3723 3.1714 20.2727 2 18.8111 2C17.3495 2 16.2492 3.17207 15.861 4.50241C15.7705 4.80962 15.4909 5.0841 15.1939 5.20565C12.9552 6.12394 10.2411 8.00525 10.2411 13.3099C10.2378 19.0968 9.02222 20.1654 7.30045 22.2644C6.58707 23.1339 7.21195 24.4396 8.45969 24.4396H29.1692C30.4102 24.4396 31.0311 23.1299 30.3217 22.2644Z" stroke="white" stroke-width="2" stroke-linecap="round" stroke-linejoin="round"/>
<path d="M22.9438 24.4396V25.5025C22.9438 26.6301 22.5083 27.7116 21.7332 28.5089C20.958 29.3063 19.9066 29.7542 18.8103 29.7542C17.714 29.7542 16.6626 29.3063 15.8874 28.5089C15.1123 27.7116 14.6768 26.6301 14.6768 25.5025V24.4396" stroke="white" stroke-width="2" stroke-linecap="round" stroke-linejoin="round"/>
</svg>
