<svg xmlns="http://www.w3.org/2000/svg" width="55.001" height="52.257" viewBox="0 0 55.001 52.257">
  <path id="Path_3" data-name="Path 3" d="M57.64,45.237c.028-.412.11-.825.11-1.237v1.375ZM30.25,44a13.587,13.587,0,0,0,1.155,5.5H16.5v2.75A2.758,2.758,0,0,1,13.75,55H11a2.758,2.758,0,0,1-2.75-2.75v-22l5.72-16.5a4.121,4.121,0,0,1,3.9-2.75h30.25a4.121,4.121,0,0,1,3.9,2.75l5.72,16.5V44a13.75,13.75,0,0,0-27.5,0ZM22,37.125a4.125,4.125,0,1,0-4.125,4.125A4.119,4.119,0,0,0,22,37.125ZM52.25,27.5,48.125,15.125H17.875L13.75,27.5ZM62.893,58.272l-11.3-11.3a7.909,7.909,0,0,0-1.87-8.553,8.15,8.15,0,0,0-9.185-1.623L45.87,42.13l-3.712,3.74-5.472-5.362a8.154,8.154,0,0,0,1.622,9.213,8,8,0,0,0,8.58,1.87l11.3,11.275a1.153,1.153,0,0,0,1.733,0l2.86-2.833A1.151,1.151,0,0,0,62.893,58.272Z" transform="translate(-8.25 -11)" fill="#e8d95f"/>
</svg>
