<svg width="24" height="24" viewBox="0 0 24 24" fill="none" xmlns="http://www.w3.org/2000/svg">
<path fill-rule="evenodd" clip-rule="evenodd" d="M12 21C16.9706 21 21 16.9706 21 12C21 7.02944 16.9706 3 12 3C7.02944 3 3 7.02944 3 12C3 16.9706 7.02944 21 12 21ZM12 18.75C15.7279 18.75 18.75 15.7279 18.75 12C18.75 8.27208 15.7279 5.25 12 5.25C8.27208 5.25 5.25 8.27208 5.25 12C5.25 15.7279 8.27208 18.75 12 18.75ZM10.5 8.25C10.5 7.83579 10.8358 7.5 11.25 7.5C11.6642 7.5 12 7.83579 12 8.25V13.2598L13.998 12.3194C14.3728 12.143 14.8196 12.3038 14.996 12.6786C15.1724 13.0534 15.0115 13.5002 14.6368 13.6766L11.8174 15.0036C11.6003 15.1058 11.3591 15.0948 11.1602 14.9947C10.7883 14.9503 10.5 14.6338 10.5 14.25V8.25Z" fill="#bdbdbd"/>
</svg>
