<svg width="36" height="36" viewBox="0 0 36 36" fill="none" xmlns="http://www.w3.org/2000/svg">
<path d="M31.25 7.4C28.984 6.79521 26.7702 6.00935 24.63 5.05C22.5244 4.13662 20.4918 3.06348 18.55 1.84L18 1.5L17.46 1.85C15.5182 3.07348 13.4856 4.14662 11.38 5.06C9.23629 6.01644 7.01915 6.79896 4.75 7.4L4 7.59V15.93C4 29.32 17.53 34.33 17.66 34.38L18 34.5L18.34 34.38C18.48 34.38 32 29.33 32 15.93V7.59L31.25 7.4ZM26.68 14.05L15.51 24.9L9.19 18.57C8.92478 18.3048 8.77579 17.9451 8.77579 17.57C8.77579 17.1949 8.92478 16.8352 9.19 16.57C9.45522 16.3048 9.81493 16.1558 10.19 16.1558C10.5651 16.1558 10.9248 16.3048 11.19 16.57L15.54 21L24.73 12C24.8613 11.8687 25.0172 11.7645 25.1888 11.6934C25.3604 11.6224 25.5443 11.5858 25.73 11.5858C25.9157 11.5858 26.0996 11.6224 26.2712 11.6934C26.4428 11.7645 26.5987 11.8687 26.73 12C26.8613 12.1313 26.9655 12.2872 27.0366 12.4588C27.1076 12.6304 27.1442 12.8143 27.1442 13C27.1442 13.1857 27.1076 13.3696 27.0366 13.5412C26.9655 13.7128 26.8613 13.8687 26.73 14L26.68 14.05Z" fill="#27AE60"/>
</svg>
