<svg width="85" height="81" viewBox="0 0 85 81" fill="none" xmlns="http://www.w3.org/2000/svg">
<path d="M76.64 60.2375C76.6675 59.825 76.75 59.4125 76.75 59V60.375L76.64 60.2375ZM49.25 59C49.25 60.9525 49.6625 62.8225 50.405 64.5H35.5V67.25C35.5 68.7625 34.2625 70 32.75 70H30C28.4875 70 27.25 68.7625 27.25 67.25V45.25L32.97 28.75C33.52 27.155 35.06 26 36.875 26H67.125C68.94 26 70.48 27.155 71.03 28.75L76.75 45.25V59C76.75 51.41 70.59 45.25 63 45.25C55.41 45.25 49.25 51.41 49.25 59ZM41 52.125C41 49.8425 39.1575 48 36.875 48C34.5925 48 32.75 49.8425 32.75 52.125C32.75 54.4075 34.5925 56.25 36.875 56.25C39.1575 56.25 41 54.4075 41 52.125ZM71.25 42.5L67.125 30.125H36.875L32.75 42.5H71.25ZM81.8925 73.2725L70.59 61.97C71.7175 59.11 71.085 55.755 68.72 53.4175C66.245 50.915 62.5325 50.42 59.535 51.795L64.87 57.13L61.1575 60.87L55.685 55.5075C54.2 58.505 54.8875 62.2175 57.3075 64.72C58.3997 65.8341 59.7937 66.6047 61.3181 66.937C62.8425 67.2692 64.4308 67.1486 65.8875 66.59L77.19 77.865C77.685 78.3875 78.4275 78.3875 78.9225 77.865L81.7825 75.0325C82.3875 74.5375 82.3875 73.6575 81.8925 73.2725Z" fill="white"/>
<g clip-path="url(#clip0_5117_193374)">
<path d="M47.25 32C47.25 40.9746 39.9746 48.25 31 48.25C22.0254 48.25 14.75 40.9746 14.75 32C14.75 23.0254 22.0254 15.75 31 15.75C39.9746 15.75 47.25 23.0254 47.25 32Z" fill="#E8D95F"/>
<path d="M19 31.6071C19 30.3251 20.0393 29.2857 21.3214 29.2857H39.8929C41.1749 29.2857 42.2143 30.3251 42.2143 31.6071C42.2143 32.8892 41.1749 33.9286 39.8929 33.9286H21.3214C20.0393 33.9286 19 32.8892 19 31.6071Z" fill="white"/>
<path d="M30.6071 43.2143C29.3251 43.2143 28.2857 42.1749 28.2857 40.8929V22.3214C28.2857 21.0393 29.3251 20 30.6071 20C31.8892 20 32.9286 21.0393 32.9286 22.3214V40.8929C32.9286 42.1749 31.8892 43.2143 30.6071 43.2143Z" fill="white"/>
</g>
<defs>
<clipPath id="clip0_5117_193374">
<rect width="52" height="52" fill="white"/>
</clipPath>
</defs>
</svg>
