<svg width="41" height="41" viewBox="0 0 41 41" fill="none" xmlns="http://www.w3.org/2000/svg">
<g clip-path="url(#clip0_5262_130524)">
<path d="M18.9 26.65H23.1V30.75H18.9V26.65ZM18.9 22.55H23.1V10.25H18.9V22.55ZM42 7.175V28.7L29.4 41H7.35C3.36 41 0 37.72 0 33.825V7.175C0 3.28 3.36 0 7.35 0H34.65C38.64 0 42 3.28 42 7.175ZM37.8 7.79C37.8 5.74 36.12 4.1 34.02 4.1H7.98C5.88 4.1 4.2 5.74 4.2 7.79V33.415C4.2 35.465 5.88 37.105 7.98 37.105H27.3V34.03C27.3 30.135 30.66 26.855 34.65 26.855H37.8V7.79Z" fill="#FF7B7B"/>
</g>
<defs>
<clipPath id="clip0_5262_130524">
<rect width="41" height="41" fill="white"/>
</clipPath>
</defs>
</svg>
