<svg width="69" height="69" viewBox="0 0 69 69" fill="none" xmlns="http://www.w3.org/2000/svg">
<g clip-path="url(#clip0_5117_193363)">
<path d="M37.957 48.8809C38.0596 49.1328 37.9725 49.417 37.7612 49.6016L36.4153 50.7559C36.4495 50.999 36.4681 51.248 36.4681 51.5C36.4681 51.752 36.4495 52.001 36.4153 52.2441L37.7612 53.3984C37.9725 53.583 38.0596 53.8672 37.957 54.1191C37.8202 54.4678 37.6555 54.8047 37.469 55.124L37.3229 55.3613C37.1178 55.6836 36.8877 55.9883 36.636 56.2783C36.4495 56.4863 36.148 56.5596 35.8744 56.4775L34.1431 55.9561C33.7266 56.2578 33.2386 56.5098 32.7755 56.7031L32.387 58.376C32.3248 58.6396 32.1072 58.8271 31.8212 58.8975C31.3923 58.9648 30.9509 59 30.4722 59C30.0495 59 29.6081 58.9648 29.1792 58.8975C28.8932 58.8271 28.6757 58.6396 28.6135 58.376L28.225 56.7031C27.7339 56.5098 27.2738 56.2578 26.8573 55.9561L25.1272 56.4775C24.8525 56.5596 24.5494 56.4863 24.3654 56.2783C24.1133 55.9883 23.8833 55.6836 23.6782 55.3613L23.5327 55.124C23.344 54.8047 23.1799 54.4678 23.0422 54.1191C22.9415 53.8672 23.0264 53.583 23.2396 53.3984L24.5842 52.2441C24.55 52.001 24.5323 51.752 24.5323 51.5C24.5323 51.248 24.55 50.999 24.5842 50.7559L23.2396 49.6016C23.0264 49.417 22.9415 49.1357 23.0422 48.8809C23.1799 48.5322 23.3443 48.1953 23.5327 47.876L23.6779 47.6387C23.8833 47.3164 24.1133 47.0117 24.3654 46.7231C24.5494 46.5137 24.8525 46.441 25.1272 46.5236L26.8573 47.0439C27.2738 46.741 27.7339 46.4891 28.225 46.2978L28.6135 44.6249C28.6757 44.3589 28.8932 44.1477 29.1792 44.1028C29.6081 44.0352 30.0495 44 30.5002 44C30.9509 44 31.3923 44.0352 31.8212 44.1028C32.1072 44.1477 32.3248 44.3589 32.387 44.6249L32.7755 46.2978C33.2386 46.4891 33.7266 46.741 34.1431 47.0439L35.8744 46.5236C36.148 46.441 36.4495 46.5137 36.636 46.7231C36.8877 47.0117 37.1178 47.3164 37.3229 47.6387L37.469 47.876C37.6555 48.1953 37.8202 48.5322 37.957 48.8809ZM30.5002 53.8438C31.8741 53.8438 32.9868 52.7949 32.9868 51.4736C32.9868 50.2051 31.8741 49.1299 30.5002 49.1299C29.1264 49.1299 28.0136 50.2051 28.0136 51.4736C28.0136 52.7949 29.1264 53.8438 30.5002 53.8438Z" fill="white"/>
<path d="M65.8959 44.8121C65.9596 44.2173 66 43.6141 66 43.0005C66 42.3869 65.9596 41.7838 65.8949 41.1879L61.4692 39.5631C61.2488 38.8159 60.9597 38.1022 60.6099 37.4239L62.6236 33.0494C61.8907 32.1006 61.0573 31.2396 60.1389 30.4823L55.9012 32.5652C55.2407 32.1992 54.5465 31.902 53.8289 31.6782L52.2559 27.1096C51.6787 27.0428 51.0944 27 50.5 27C49.9056 27 49.3213 27.0417 48.7441 27.1096L47.1711 31.6782C46.4473 31.9046 45.7559 32.202 45.0988 32.5652L40.8601 30.4823C39.9402 31.2388 39.1073 32.0998 38.3733 33.0494L40.3911 37.4218C40.0393 38.1001 39.7512 38.8149 39.5318 39.561L35.1061 41.1889C35.0414 41.7838 35 42.389 35 43.0016C35 43.6141 35.0404 44.2173 35.1061 44.8131L39.5318 46.439C39.7512 47.1851 40.0393 47.8999 40.3911 48.5782L38.3744 52.9527C39.1073 53.9023 39.9412 54.7612 40.8611 55.5177L45.0958 53.4359C45.7529 53.799 46.4453 54.0975 47.1681 54.325L48.7431 58.8925C49.3193 58.9583 49.9036 59 50.499 59C51.0934 59 51.6767 58.9583 52.2539 58.8915L53.8289 54.3229C54.5517 54.0954 55.2441 53.7969 55.9012 53.4359L60.1389 55.5146C61.0588 54.758 61.8907 53.8971 62.6236 52.9496L60.6089 48.5761C60.9607 47.901 61.2498 47.1841 61.4702 46.4369L65.8949 44.8121H65.8959ZM50.5 48.0825C49.8534 48.0827 49.213 47.9513 48.6156 47.696C48.0181 47.4407 47.4752 47.0664 47.0179 46.5945C46.0942 45.6414 45.5752 44.3486 45.5749 43.0005C45.5747 41.6524 46.0932 40.3594 47.0164 39.406C47.9397 38.4525 49.192 37.9167 50.498 37.9164C51.8039 37.9161 53.0565 38.4514 53.9801 39.4045C54.9037 40.3575 55.4228 41.6503 55.423 42.9984C55.4233 44.3465 54.9048 45.6396 53.9815 46.593C53.0583 47.5465 51.8059 48.0823 50.5 48.0825Z" fill="white"/>
<path d="M39.25 21C39.25 29.9746 31.9746 37.25 23 37.25C14.0254 37.25 6.75 29.9746 6.75 21C6.75 12.0254 14.0254 4.75 23 4.75C31.9746 4.75 39.25 12.0254 39.25 21Z" fill="#E8D95F"/>
<path d="M11 20.6071C11 19.3251 12.0393 18.2857 13.3214 18.2857H31.8929C33.1749 18.2857 34.2143 19.3251 34.2143 20.6071C34.2143 21.8892 33.1749 22.9286 31.8929 22.9286H13.3214C12.0393 22.9286 11 21.8892 11 20.6071Z" fill="white"/>
<path d="M22.6071 32.2143C21.3251 32.2143 20.2857 31.1749 20.2857 29.8929V11.3214C20.2857 10.0393 21.3251 9 22.6071 9C23.8892 9 24.9286 10.0393 24.9286 11.3214V29.8929C24.9286 31.1749 23.8892 32.2143 22.6071 32.2143Z" fill="white"/>
</g>
<defs>
<clipPath id="clip0_5117_193363">
<rect width="69" height="69" fill="white"/>
</clipPath>
</defs>
</svg>
