<svg width="66" height="66" viewBox="0 0 66 66" fill="none" xmlns="http://www.w3.org/2000/svg">
<path d="M57.64 45.2375C57.6675 44.825 57.75 44.4125 57.75 44V45.375L57.64 45.2375ZM30.25 44C30.25 45.9525 30.6625 47.8225 31.405 49.5H16.5V52.25C16.5 53.7625 15.2625 55 13.75 55H11C9.4875 55 8.25 53.7625 8.25 52.25V30.25L13.97 13.75C14.52 12.155 16.06 11 17.875 11H48.125C49.94 11 51.48 12.155 52.03 13.75L57.75 30.25V44C57.75 36.41 51.59 30.25 44 30.25C36.41 30.25 30.25 36.41 30.25 44ZM22 37.125C22 34.8425 20.1575 33 17.875 33C15.5925 33 13.75 34.8425 13.75 37.125C13.75 39.4075 15.5925 41.25 17.875 41.25C20.1575 41.25 22 39.4075 22 37.125ZM52.25 27.5L48.125 15.125H17.875L13.75 27.5H52.25ZM62.8925 58.2725L51.59 46.97C52.7175 44.11 52.085 40.755 49.72 38.4175C47.245 35.915 43.5325 35.42 40.535 36.795L45.87 42.13L42.1575 45.87L36.685 40.5075C35.2 43.505 35.8875 47.2175 38.3075 49.72C39.3997 50.8341 40.7937 51.6047 42.3181 51.937C43.8425 52.2692 45.4308 52.1486 46.8875 51.59L58.19 62.865C58.685 63.3875 59.4275 63.3875 59.9225 62.865L62.7825 60.0325C63.3875 59.5375 63.3875 58.6575 62.8925 58.2725Z" fill="#E8D95F"/>
</svg>
