<svg width="18" height="21" viewBox="0 0 18 21" fill="none" xmlns="http://www.w3.org/2000/svg">
<path fill-rule="evenodd" clip-rule="evenodd" d="M9.07812 12.0577C12.2691 12.0577 14.856 9.44244 14.856 6.21635C14.856 2.99026 12.2691 0.375 9.07812 0.375C5.8871 0.375 3.30027 2.99026 3.30027 6.21635C3.30027 9.44244 5.8871 12.0577 9.07812 12.0577ZM0.230546 16.7308C0.368706 14.7318 1.71055 12.9688 3.72882 11.833C4.91472 13.0807 6.86863 13.6154 9.07812 13.6154C11.2876 13.6154 13.2415 13.0807 14.4274 11.833C16.4457 12.9688 17.7875 14.7318 17.9257 16.7308H17.9375V17.0729V17.625C17.9375 19.2819 16.5944 20.625 14.9375 20.625H3.21875C1.5619 20.625 0.21875 19.2819 0.21875 17.625V17.0729V16.7308H0.230546Z" fill="#E8D95F"/>
</svg>
