<svg width="32" height="32" viewBox="0 0 32 32" fill="none" xmlns="http://www.w3.org/2000/svg">
<path fill-rule="evenodd" clip-rule="evenodd" d="M16 27C22.0751 27 27 22.0751 27 16C27 9.92487 22.0751 5 16 5C9.92487 5 5 9.92487 5 16C5 22.0751 9.92487 27 16 27ZM11 12.77C11 14.8812 12.5954 16.0235 15 16.716V21.0134C13.9921 20.8203 13.4254 20.32 13.17 19.67C13.02 19.28 12.68 19 12.27 19H11.99C11.32 19 10.85 19.68 11.1 20.3C11.67 21.69 13 22.51 14.5 22.83V23.5C14.5 24.33 15.17 25 16 25C16.83 25 17.5 24.33 17.5 23.5V22.85C19.45 22.48 21 21.35 21 19.3C21 16.751 19.0424 15.7084 17 15.0949V11.0138C17.7706 11.2149 18.2002 11.6722 18.39 12.3C18.51 12.7 18.84 13 19.26 13H19.56C20.22 13 20.69 12.35 20.46 11.73C20.04 10.55 19.06 9.57 17.5 9.19V8.5C17.5 7.67 16.83 7 16 7C15.17 7 14.5 7.67 14.5 8.5V9.16C12.56 9.58 11 10.84 11 12.77ZM15 11.0028V14.4979C13.7402 14.0204 13.3 13.4877 13.3 12.75C13.3 11.8963 13.9195 11.2451 15 11.0028ZM17 17.303V21.0088C18.365 20.7312 18.7 19.8805 18.7 19.31C18.7 18.571 18.3843 17.8635 17 17.303Z" fill="#282828"/>
</svg>
