<svg width="24" height="24" viewBox="0 0 24 24" fill="none" xmlns="http://www.w3.org/2000/svg">
<path fill-rule="evenodd" clip-rule="evenodd" d="M20.25 11.625C20.25 13.489 16.3885 15.75 11.625 15.75C6.86154 15.75 3 13.489 3 11.625C3 9.76104 6.86154 8.25 11.625 8.25C16.3885 8.25 20.25 9.76104 20.25 11.625ZM14.25 12C14.25 13.6108 13.0747 14.9167 11.625 14.9167C10.1753 14.9167 9 13.6108 9 12C9 10.3892 10.1753 9.08333 11.625 9.08333C13.0747 9.08333 14.25 10.3892 14.25 12ZM11.625 13.5C12.2463 13.5 12.75 12.8284 12.75 12C12.75 11.1716 12.2463 10.5 11.625 10.5C11.0037 10.5 10.5 11.1716 10.5 12C10.5 12.8284 11.0037 13.5 11.625 13.5Z" fill="white"/>
</svg>
