<svg width="30" height="30" viewBox="0 0 30 30" fill="none" xmlns="http://www.w3.org/2000/svg">
<path fill-rule="evenodd" clip-rule="evenodd" d="M14.2295 13.0662L5.15609 12.9925C4.19455 12.9847 3.40875 13.7579 3.40094 14.7194C3.39313 15.6809 4.16628 16.4667 5.12781 16.4745L14.2012 16.5482L14.1703 20.3564L20.7452 14.7263L14.2626 8.99017L14.2295 13.0662ZM12.0535 21.4945V24.9766H23.8526C25.5094 24.9766 26.8526 23.6334 26.8526 21.9766V7.08371C26.8526 5.42685 25.5094 4.08371 23.8526 4.08371H12.0535V7.56591H21.2409C22.8977 7.56591 24.2409 8.90906 24.2409 10.5659V18.4945C24.2409 20.1513 22.8977 21.4945 21.2409 21.4945H12.0535Z" fill="white"/>
</svg>
