<svg width="60" height="60" viewBox="0 0 60 60" fill="none" xmlns="http://www.w3.org/2000/svg">
<path fill-rule="evenodd" clip-rule="evenodd" d="M52.7187 17.2412L30.3594 4.33203L8.00011 17.2412L15.5054 21.5744L15.5053 21.5744L8 17.2412V43.0595L30.3593 55.9687V30.1504L22.2131 25.4472L22.2132 25.4471L30.3594 30.1503L52.7187 17.2412ZM23.7137 24.5808L30.3902 28.4291L48.0722 17.6652L41.9234 14.0674L23.7137 24.5808ZM35.2603 10.1688L30.3902 7.31926L11.7158 17.6652L17.0004 20.7112L35.2603 10.1688ZM9.84414 20.0074L28.669 31.011V52.7924L9.84414 42.1374V20.0074ZM30.3758 30.1504L52.7351 17.2412L52.7351 37.1887C52.2083 36.6204 51.6222 36.1079 50.9866 35.661V20.2881L32.0971 31.011L31.9741 52.2804L35.2861 50.4134C35.7031 51.0923 36.1916 51.7226 36.7413 52.2936L30.3758 55.9687V30.1504ZM14.8848 23.0504L21.5926 26.9231L21.5926 37.4655L18.2387 32.8666L14.8848 33.5927L14.8848 23.0504Z" fill="#282828"/>
<path fill-rule="evenodd" clip-rule="evenodd" d="M44.668 55.6641C50.7431 55.6641 55.668 50.7392 55.668 44.6641C55.668 38.5889 50.7431 33.6641 44.668 33.6641C38.5928 33.6641 33.668 38.5889 33.668 44.6641C33.668 50.7392 38.5928 55.6641 44.668 55.6641ZM48.6563 39.1361C49.0922 38.7251 49.7789 38.7452 50.19 39.1811C50.601 39.617 50.5809 40.3035 50.145 40.7145L46.2563 44.3808L50.1419 47.9598C50.5825 48.3657 50.6107 49.052 50.2047 49.4926C49.7987 49.9332 49.1124 49.9614 48.6717 49.5554L44.6737 45.8729L40.7697 49.5537C40.3338 49.9647 39.6472 49.9446 39.2361 49.5087C38.825 49.0728 38.8452 48.3863 39.2811 47.9753L43.0739 44.3993L39.1943 40.8258C38.7536 40.4199 38.7255 39.7337 39.1314 39.2931C39.5374 38.8524 40.2238 38.8243 40.6645 39.2302L44.6565 42.9072L48.6563 39.1361Z" fill="#282828"/>
</svg>
