<svg width="60" height="60" viewBox="0 0 60 60" fill="none" xmlns="http://www.w3.org/2000/svg">
<path fill-rule="evenodd" clip-rule="evenodd" d="M19.1209 4.33203C19.1209 4.33203 15.3359 4.33203 15.3359 7.18388V52.8135C15.3359 55.6654 18.1746 55.6654 18.1746 55.6654H41.8306C41.8306 55.6654 44.6693 55.6654 44.6693 52.8135V7.18388C44.6693 4.84491 41.8306 4.33203 41.8306 4.33203H19.1209ZM25.4193 6.16536C24.913 6.16536 24.5026 6.57577 24.5026 7.08203C24.5026 7.58829 24.913 7.9987 25.4193 7.9987H32.7526C33.2589 7.9987 33.6693 7.58829 33.6693 7.08203C33.6693 6.57577 33.2589 6.16536 32.7526 6.16536H25.4193ZM21.8413 9.83203C21.8413 9.83203 19.0026 9.83203 19.0026 11.9709V46.1931C19.0026 48.332 21.1316 48.332 21.1316 48.332H38.8736C38.8736 48.332 41.0026 48.332 41.0026 46.1931V11.9709C41.0026 10.2167 38.8736 9.83203 38.8736 9.83203H21.8413ZM31.8359 51.9987C31.8359 53.0112 31.0151 53.832 30.0026 53.832C28.9901 53.832 28.1693 53.0112 28.1693 51.9987C28.1693 50.9862 28.9901 50.1654 30.0026 50.1654C31.0151 50.1654 31.8359 50.9862 31.8359 51.9987Z" fill="#282828"/>
<path fill-rule="evenodd" clip-rule="evenodd" d="M30.0026 39.1654C35.0652 39.1654 39.1693 35.0613 39.1693 29.9987C39.1693 24.9361 35.0652 20.832 30.0026 20.832C24.94 20.832 20.8359 24.9361 20.8359 29.9987C20.8359 35.0613 24.94 39.1654 30.0026 39.1654ZM30.0026 36.8737C33.7996 36.8737 36.8776 33.7957 36.8776 29.9987C36.8776 26.2017 33.7996 23.1237 30.0026 23.1237C26.2056 23.1237 23.1276 26.2017 23.1276 29.9987C23.1276 33.7957 26.2056 36.8737 30.0026 36.8737ZM28.4746 26.1793C28.4746 25.7574 28.8166 25.4154 29.2385 25.4154C29.6604 25.4154 30.0024 25.7574 30.0024 26.1793V31.2818L32.0373 30.324C32.419 30.1443 32.8741 30.3081 33.0537 30.6899C33.2334 31.0716 33.0696 31.5267 32.6879 31.7063L29.8163 33.0579C29.5952 33.162 29.3495 33.1508 29.1469 33.0488C28.7682 33.0036 28.4746 32.6813 28.4746 32.2904V26.1793Z" fill="#282828"/>
</svg>
