<svg width="91" height="91" viewBox="0 0 91 91" fill="none" xmlns="http://www.w3.org/2000/svg">
<path fill-rule="evenodd" clip-rule="evenodd" d="M8.73439 20.9062C8.73439 20.354 9.1821 19.9062 9.73439 19.9062H48.9688C49.521 19.9062 49.9688 20.354 49.9688 20.9062V44.5C49.9688 45.0523 49.521 45.5 48.9688 45.5H9.73439C9.1821 45.5 8.73439 45.0523 8.73439 44.5V20.9062ZM33.946 26.0343C33.318 25.3639 33.318 24.2809 33.946 23.6105C34.5739 22.94 35.6045 22.94 36.2163 23.5933L43.6071 31.4837C44.2351 32.1541 44.2351 33.2371 43.6071 33.9075L36.2163 41.798C35.5884 42.4684 34.5739 42.4684 33.946 41.798C33.318 41.1275 33.318 40.0445 33.946 39.3741L38.3966 34.6226H16.4141C15.7513 34.6226 15.2141 34.0854 15.2141 33.4226V31.9836C15.2141 31.3208 15.7513 30.7836 16.4141 30.7836H38.3945L33.946 26.0343ZM8.53129 50.6992C8.53129 49.5946 9.42672 48.6992 10.5313 48.6992H16.0625H51.914C52.4663 48.6992 52.914 48.2515 52.914 47.6992V29.5039H56.875H56.875H74.6584L85.3125 47.0761V54.1249L80.5043 61.4961H76.2958C75.1246 57.7684 71.9646 55.0977 68.25 55.0977C64.5354 55.0977 61.3754 57.7684 60.2042 61.4961H56.875H56.875H39.3271C38.156 57.7684 34.9959 55.0977 31.2813 55.0977C27.5667 55.0977 24.4067 57.7684 23.2355 61.4961H21.75H17.0625H7.28711C6.40367 61.4961 5.6875 60.7799 5.6875 59.8965C5.6875 59.013 6.40367 58.2969 7.28711 58.2969H16.0625C16.6148 58.2969 17.0625 57.8492 17.0625 57.2969V56.0977C17.0625 55.5454 16.6148 55.0977 16.0625 55.0977H10.5313C9.42672 55.0977 8.53129 54.2022 8.53129 53.0977V50.6992ZM77.2288 49.0885H56.875V34.0464H71.6259L79.8152 45.4576L77.2288 49.0885ZM68.25 68.25C71.3911 68.25 73.9375 65.7036 73.9375 62.5625C73.9375 59.4214 71.3911 56.875 68.25 56.875C65.1089 56.875 62.5625 59.4214 62.5625 62.5625C62.5625 65.7036 65.1089 68.25 68.25 68.25ZM36.9687 62.5625C36.9687 65.7036 34.4224 68.25 31.2812 68.25C28.1401 68.25 25.5938 65.7036 25.5938 62.5625C25.5938 59.4214 28.1401 56.875 31.2812 56.875C34.4224 56.875 36.9687 59.4214 36.9687 62.5625Z" fill="#282828"/>
</svg>
