<svg width="60" height="60" viewBox="0 0 60 60" fill="none" xmlns="http://www.w3.org/2000/svg">
<path fill-rule="evenodd" clip-rule="evenodd" d="M6.30023 14.4961C6.30023 13.9438 6.74794 13.4961 7.30023 13.4961H31.8836C32.4359 13.4961 32.8836 13.9438 32.8836 14.4961V28.9961C32.8836 29.5484 32.4359 29.9961 31.8836 29.9961H7.30023C6.74795 29.9961 6.30023 29.5484 6.30023 28.9961V14.4961ZM22.5539 17.4468C22.149 17.0146 22.149 16.3164 22.5539 15.8842C22.9587 15.4519 23.6231 15.4519 24.0175 15.8731L28.7823 20.9599C29.1871 21.3922 29.1871 22.0903 28.7823 22.5226L24.0175 27.6094C23.6127 28.0416 22.9587 28.0416 22.5539 27.6094C22.149 27.1772 22.149 26.479 22.5539 26.0468L25.4231 22.9836H11.6776C11.0149 22.9836 10.4776 22.4463 10.4776 21.7836V21.7086C10.4776 21.0458 11.0149 20.5086 11.6776 20.5086H25.4218L22.5539 17.4468ZM6.1693 34.0586C6.1693 32.954 7.06473 32.0586 8.1693 32.0586H10.6693H33.7823C34.3346 32.0586 34.7823 31.6109 34.7823 31.0586V19.6836H37.3359H48.8007L55.6693 31.0122V35.5565L52.5695 40.3086H49.8563C49.1013 37.9054 47.064 36.1836 44.6693 36.1836C42.2745 36.1836 40.2373 37.9054 39.4822 40.3086H37.3359H26.023C25.268 37.9054 23.2307 36.1836 20.836 36.1836C18.4412 36.1836 16.404 37.9054 15.6489 40.3086H14.3359H11.6693H5.36719C4.79764 40.3086 4.33594 39.8469 4.33594 39.2773C4.33594 38.7078 4.79764 38.2461 5.36719 38.2461H10.6693C11.2216 38.2461 11.6693 37.7984 11.6693 37.2461V37.1836C11.6693 36.6313 11.2216 36.1836 10.6693 36.1836H8.1693C7.06473 36.1836 6.1693 35.2882 6.1693 34.1836V34.0586ZM50.4578 32.3096H37.3359V22.6121H46.8457L52.1252 29.9688L50.4578 32.3096ZM44.6693 44.6628C46.6943 44.6628 48.3359 43.0211 48.3359 40.9961C48.3359 38.971 46.6943 37.3294 44.6693 37.3294C42.6442 37.3294 41.0026 38.971 41.0026 40.9961C41.0026 43.0211 42.6442 44.6628 44.6693 44.6628ZM24.5026 40.9961C24.5026 43.0211 22.861 44.6628 20.8359 44.6628C18.8109 44.6628 17.1693 43.0211 17.1693 40.9961C17.1693 38.971 18.8109 37.3294 20.8359 37.3294C22.861 37.3294 24.5026 38.971 24.5026 40.9961Z" fill="#282828"/>
</svg>
