<svg width="60" height="60" viewBox="0 0 60 60" fill="none" xmlns="http://www.w3.org/2000/svg">
<path fill-rule="evenodd" clip-rule="evenodd" d="M52.7187 17.2412L30.3594 4.33203L8.00011 17.2412L15.5054 21.5744L15.5053 21.5744L8 17.2412L8 43.0595L30.3593 55.9687V30.1504L22.2131 25.4472L22.2132 25.4471L30.3594 30.1503L52.7187 17.2412ZM23.7137 24.5808L30.3902 28.4291L48.0722 17.6652L41.9234 14.0674L23.7137 24.5808ZM35.2603 10.1688L30.3902 7.31926L11.7158 17.6652L17.0004 20.7112L35.2603 10.1688ZM30.3758 30.1503L52.7351 17.2412V37.1887C52.2083 36.6204 51.6221 36.1079 50.9866 35.661V20.2881L32.097 31.0109L31.9741 52.2803L35.2861 50.4133C35.703 51.0923 36.1916 51.7225 36.7413 52.2935L30.3758 55.9686L30.3758 30.1503ZM9.84414 20.0074L28.669 31.011V52.7924L9.84414 42.1374V20.0074ZM14.8848 23.0504L21.5926 26.9231V37.4655L18.2387 32.8666L14.8848 33.5927V23.0504Z" fill="#282828"/>
<path fill-rule="evenodd" clip-rule="evenodd" d="M44.668 55.6641C50.7431 55.6641 55.668 50.7392 55.668 44.6641C55.668 38.5889 50.7431 33.6641 44.668 33.6641C38.5928 33.6641 33.668 38.5889 33.668 44.6641C33.668 50.7392 38.5928 55.6641 44.668 55.6641ZM48.0596 39.1862C48.5538 38.5023 49.5088 38.3485 50.1928 38.8426C50.8767 39.3368 51.0305 40.2918 50.5363 40.9758L43.8725 50.1982C43.3784 50.8821 42.4233 51.0359 41.7394 50.5417C41.7068 50.5182 41.6754 50.4936 41.6452 50.468C41.5209 50.405 41.4032 50.3238 41.296 50.2242L37.8227 46.9997C37.2044 46.4256 37.1685 45.4589 37.7425 44.8405C38.3166 44.2222 39.2833 44.1863 39.9017 44.7604L42.3737 47.0554L48.0596 39.1862Z" fill="#282828"/>
</svg>
