<svg width="36" height="36" viewBox="0 0 36 36" fill="none" xmlns="http://www.w3.org/2000/svg">
<path fill-rule="evenodd" clip-rule="evenodd" d="M9.71194 5.625C8.82625 5.625 8.10825 6.34299 8.10825 7.22869V16.6503C8.10825 17.536 8.82625 18.254 9.71194 18.254H13.5207V21.8623L16.2269 19.6072L17.8507 18.254H27.2523C28.1379 18.254 28.8559 17.536 28.8559 16.6503V7.22869C28.8559 6.34299 28.1379 5.625 27.2523 5.625H9.71194ZM11.5161 7.42914C10.6304 7.42914 9.91242 8.14714 9.91242 9.03283V14.8462C9.91242 15.7319 10.6304 16.4499 11.5161 16.4499H25.4481C26.3338 16.4499 27.0518 15.7319 27.0518 14.8462V9.03283C27.0518 8.14714 26.3338 7.42914 25.4481 7.42914H11.5161ZM12.6186 9.23328C12.1204 9.23328 11.7166 9.63715 11.7166 10.1354C11.7166 10.6336 12.1204 11.0374 12.6186 11.0374H24.3456C24.8438 11.0374 25.2477 10.6336 25.2477 10.1354C25.2477 9.63715 24.8438 9.23328 24.3456 9.23328H12.6186ZM11.7166 13.7436C11.7166 13.2454 12.1204 12.8416 12.6186 12.8416H24.3456C24.8438 12.8416 25.2477 13.2454 25.2477 13.7436C25.2477 14.2418 24.8438 14.6457 24.3456 14.6457H12.6186C12.1204 14.6457 11.7166 14.2418 11.7166 13.7436ZM7.12419 26.6071L4.5 27.0299L6.68682 28.721L5.81209 31.2577L8.43628 29.9894L11.0605 31.2577L10.1857 28.721L12.3726 27.0299L9.74838 26.6071L8.43628 24.0704L7.12419 26.6071ZM16.6879 26.6071L14.0637 27.0299L16.2505 28.721L15.3758 31.2578L18 29.9894L20.6242 31.2578L19.7495 28.721L21.9363 27.0299L19.3121 26.6071L18 24.0704L16.6879 26.6071ZM23.6274 27.0299L26.2516 26.6071L27.5637 24.0704L28.8758 26.6071L31.5 27.0299L29.3132 28.721L30.1879 31.2578L27.5637 29.9894L24.9395 31.2578L25.8143 28.721L23.6274 27.0299Z" fill="white"/>
</svg>
