<svg width="60" height="60" viewBox="0 0 60 60" fill="none" xmlns="http://www.w3.org/2000/svg">
<path fill-rule="evenodd" clip-rule="evenodd" d="M13.5013 31.832H6.16797V53.832H13.5013V51.3341L19.0013 50.6466C20.9686 50.7976 23.5682 51.757 26.0053 52.6565C28.3232 53.512 30.4941 54.3133 31.8346 54.3133C34.5846 54.3133 49.2513 48.8133 52.918 46.9799C56.5846 45.1466 53.8346 39.6466 51.0846 40.5633C49.4727 41.1006 44.3965 42.4174 40.471 43.4152C41.7254 41.4842 41.3467 38.3509 38.5003 37.7075L33.7669 36.6375C29.0774 35.2231 22.8672 33.3066 21.7513 32.7487C20.2864 32.0162 16.3052 32.2905 13.5013 33.742V31.832ZM13.5013 36.4153V49.2487C16.5083 48.5211 18.1687 48.1801 20.8346 48.332C21.2734 48.5135 21.877 48.7975 22.583 49.1296L22.5831 49.1297C25.3399 50.4266 29.6592 52.4586 31.8346 51.9987C34.5672 51.4211 47.8328 47.2631 50.6456 46.2957C53.4584 45.3283 51.3488 42.426 49.2392 42.9097C47.1295 43.3934 36.418 46.2957 36.418 46.2957L26.3346 42.832L27.2513 41.9153C27.2513 41.9153 32.7513 42.8319 36.418 42.832C40.0846 42.832 40.0846 40.082 38.2513 39.1653C38.2513 39.1653 23.5846 35.4987 20.8346 34.582C18.4613 33.7909 16.4022 34.8838 14.4329 35.9291L14.4328 35.9291C14.1203 36.095 13.8101 36.2596 13.5013 36.4153Z" fill="#282828"/>
<path fill-rule="evenodd" clip-rule="evenodd" d="M30.9193 31.8307C36.4881 31.8307 41.0026 27.3163 41.0026 21.7474C41.0026 16.1785 36.4881 11.6641 30.9193 11.6641C25.3504 11.6641 20.8359 16.1785 20.8359 21.7474C20.8359 27.3163 25.3504 31.8307 30.9193 31.8307ZM31.836 13.4974V15.4224C32.7627 15.5788 33.7107 15.9264 34.6332 16.402L33.793 18.0315C33.084 17.6659 32.4312 17.42 31.836 17.2861V20.2908C32.1773 20.3095 32.539 20.3535 32.9141 20.4392C34.164 20.7244 35.1226 21.4953 35.4149 22.6517C35.6978 23.7706 35.2855 24.9779 34.4204 26.0309C33.8603 26.7126 33.0636 27.0441 32.2915 27.1746C32.1413 27.2 31.9891 27.2184 31.836 27.2303V29.0807H30.2318V27.1437C30.1361 27.1269 30.0413 27.1083 29.9479 27.0879C29.2061 26.9267 28.485 26.6472 27.9251 26.2795C27.4294 25.954 26.7836 25.372 26.7836 24.5343H28.6169C28.6169 24.4991 28.6125 24.4776 28.6106 24.4687L28.61 24.464L28.6131 24.4683C28.6271 24.4898 28.6921 24.5899 28.9314 24.7471C29.2434 24.9519 29.7028 25.1463 30.2318 25.2724V22.1833L30.1495 22.1897C29.4214 22.2451 28.4066 22.3041 27.5832 21.5525C26.9866 21.0079 26.4428 20.2428 26.3497 19.3085C26.2519 18.3257 26.6721 17.3715 27.5832 16.5397C28.3683 15.823 29.2712 15.456 30.2318 15.3578V13.4974H31.836ZM28.8193 17.8937C29.2107 17.5364 29.6823 17.3052 30.2318 17.2116V20.3436C30.1547 20.3501 30.0809 20.3563 30.0104 20.3617C29.2356 20.4206 28.9979 20.3616 28.8193 20.1985C28.4139 19.8285 28.2063 19.4502 28.1741 19.1268C28.1467 18.8519 28.2274 18.434 28.8193 17.8937ZM31.836 25.3885V22.1267C32.0532 22.1427 32.2751 22.1738 32.5062 22.2265C33.2603 22.3986 33.5541 22.7711 33.6375 23.1011C33.7304 23.4685 33.6417 24.0907 33.0038 24.8671C32.8125 25.1 32.4819 25.2831 31.9859 25.367C31.9368 25.3753 31.8868 25.3824 31.836 25.3885Z" fill="#282828"/>
</svg>
