<svg width="91" height="91" viewBox="0 0 91 91" fill="none" xmlns="http://www.w3.org/2000/svg">
<path fill-rule="evenodd" clip-rule="evenodd" d="M46.0575 5.6875L80.7398 25.7113L46.0575 45.7352L33.4216 38.4398L33.4214 38.4399L46.0573 45.7353L46.0573 85.783L11.375 65.7591V25.7114L23.0167 32.4328L23.0169 32.4327L11.3752 25.7114L46.0575 5.6875ZM46.1053 43.0653L35.7491 37.096L63.9948 20.7884L73.5325 26.369L46.1053 43.0653ZM46.1053 10.3211L53.6595 14.7412L25.3358 31.0938L17.1387 26.369L46.1053 10.3211ZM80.7653 25.7113L46.083 45.7352V85.7829L80.7653 65.759V25.7113ZM78.053 30.4375L48.7528 47.0701L48.5621 80.0618L78.053 63.4375V30.4375ZM43.4354 47.0702L14.2355 30.0022V64.3288L43.4354 80.8561V47.0702ZM32.4589 40.7293L22.0542 34.7222L22.0542 51.0748L27.2566 49.9485L32.4589 57.082L32.4589 40.7293Z" fill="#282828"/>
</svg>
