<svg width="27" height="27" viewBox="0 0 27 27" fill="none" xmlns="http://www.w3.org/2000/svg">
<path fill-rule="evenodd" clip-rule="evenodd" d="M5.0625 4.79212C5.0625 3.54348 6.07473 2.53125 7.32337 2.53125H17.7188L19.4583 4.33773L19.4591 4.33858L20.4865 5.40545L20.4869 5.40582L21.9375 6.91226V23.0516C21.9375 24.3003 20.9253 25.3125 19.6766 25.3125H7.32337C6.07473 25.3125 5.0625 24.3003 5.0625 23.0516V4.79212ZM9.01087 4.28376H17.8842C17.6832 4.46372 17.5431 4.71967 17.5181 5.03227L17.4153 6.31251C17.3557 7.05571 18.0192 7.65207 18.7519 7.51374L19.882 7.30037C20.0179 7.2747 20.1411 7.22736 20.25 7.16327V21.2993C20.25 22.548 19.2378 23.5602 17.9891 23.5602H9.01087C7.76223 23.5602 6.75 22.548 6.75 21.2993V6.54463C6.75 5.29599 7.76223 4.28376 9.01087 4.28376ZM9.28125 11.6184C9.28125 13.3998 10.6274 14.3636 12.6562 14.9478V18.5738C11.8058 18.4109 11.3277 17.9888 11.1122 17.4403C10.9856 17.1113 10.6988 16.875 10.3528 16.875H10.1166C9.55125 16.875 9.15469 17.4488 9.36563 17.9719C9.84656 19.1447 10.9688 19.8366 12.2344 20.1066V20.6719C12.2344 21.3722 12.7997 21.9375 13.5 21.9375C14.2003 21.9375 14.7656 21.3722 14.7656 20.6719V20.1234C16.4109 19.8112 17.7188 18.8578 17.7188 17.1281C17.7188 14.9774 16.0671 14.0977 14.3438 13.5801V10.1366C14.9939 10.3063 15.3564 10.6922 15.5166 11.2219C15.6178 11.5594 15.8962 11.8125 16.2506 11.8125H16.5038C17.0606 11.8125 17.4572 11.2641 17.2631 10.7409C16.9088 9.74531 16.0819 8.91844 14.7656 8.59781V8.01562C14.7656 7.31531 14.2003 6.75 13.5 6.75C12.7997 6.75 12.2344 7.31531 12.2344 8.01562V8.5725C10.5975 8.92688 9.28125 9.99 9.28125 11.6184ZM12.6562 10.1274V13.0764C11.5933 12.6735 11.2219 12.224 11.2219 11.6016C11.2219 10.8813 11.7446 10.3318 12.6562 10.1274ZM14.3438 15.4432V18.57C15.4955 18.3357 15.7781 17.6179 15.7781 17.1366C15.7781 16.513 15.5117 15.9161 14.3438 15.4432Z" fill="white"/>
</svg>
