<svg width="27" height="27" viewBox="0 0 27 27" fill="none" xmlns="http://www.w3.org/2000/svg">
<path fill-rule="evenodd" clip-rule="evenodd" d="M9.12094 5.05309C6.43046 5.05309 4.79397 3.375 4.79397 3.375C4.79397 3.375 3.00494 4.34579 5.73703 6.31512C7.25903 7.41219 6.7926 8.54801 6.08083 10.2812C5.51494 11.6592 4.79397 13.4149 4.79397 15.8289C4.79397 21.2792 13.6559 24.4551 13.6559 24.4551C13.6559 24.4551 21.8522 21.6814 21.8522 16.2311C21.8522 13.941 21.3699 12.0769 20.9823 10.5792C20.4475 8.51248 20.0932 7.14337 21.4361 6.31512C23.7522 4.88666 22.0463 3.375 22.0463 3.375C22.0463 3.375 20.1186 5.05309 17.8165 5.05309C16.5088 5.05309 15.7738 4.51164 15.1389 4.04386C14.656 3.68813 14.231 3.375 13.6559 3.375C13.1061 3.375 12.6959 3.66117 12.2142 3.99716C11.5294 4.47479 10.7004 5.05309 9.12094 5.05309ZM16.2513 11.2191C16.2513 12.7553 15.0195 14.0007 13.5 14.0007C11.9804 14.0007 10.7486 12.7553 10.7486 11.2191C10.7486 9.68286 11.9804 8.4375 13.5 8.4375C15.0195 8.4375 16.2513 9.68286 16.2513 11.2191ZM10.9527 13.8937C9.99161 14.4346 9.35265 15.2741 9.28687 16.226H9.28125V16.3889V16.6518C9.28125 17.4408 9.92084 18.0804 10.7098 18.0804H16.2902C17.0792 18.0804 17.7188 17.4408 17.7188 16.6518V16.3889V16.226H17.7131C17.6473 15.2741 17.0084 14.4346 16.0473 13.8937C15.4826 14.4879 14.5522 14.7425 13.5 14.7425C12.4478 14.7425 11.5174 14.4879 10.9527 13.8937Z" fill="#e8d95f"/>
</svg>
