<svg width="27" height="27" viewBox="0 0 27 27" fill="none" xmlns="http://www.w3.org/2000/svg">
<path fill-rule="evenodd" clip-rule="evenodd" d="M4.09821 3.375H10.3661V4.94196H11.933L11.933 11.9933H15.8504V12.7768H17.4174V7.29241H24.4687V24.4688H27V27H0V24.4688H2.53125V4.94196H4.09821V3.375ZM10.3661 17.4777V15.1272H8.01562V17.4777H10.3661ZM10.3661 13.5603L10.3661 12.7768L10.3661 11.2098H8.01562V13.5603H10.3661ZM11.933 23.7455H15.8504V14.3438H11.933V23.7455ZM4.09821 7.29241H6.44866V9.64285H4.09821V7.29241ZM8.01562 7.29241H10.3661V9.64286H8.01562V7.29241ZM6.44866 11.2098H4.09821V13.5603H6.44866V11.2098ZM6.44866 15.1272H4.09821V17.4777H6.44866V15.1272ZM12.7165 15.9107H15.067V16.6942H12.7165V15.9107ZM15.067 18.2612H12.7165V19.0447H15.067V18.2612ZM12.7165 20.6116H15.067V21.3951H12.7165V20.6116ZM18.9844 8.85937H20.5513V21.3951H18.9844V8.85937ZM22.9018 8.85937H21.3348V21.3951H22.9018V8.85937Z" fill="white"/>
</svg>
