<svg width="27" height="27" viewBox="0 0 27 27" fill="none" xmlns="http://www.w3.org/2000/svg">
<g clip-path="url(#clip0_4397_170342)">
<path fill-rule="evenodd" clip-rule="evenodd" d="M13.0781 15.0577C16.2691 15.0577 18.856 12.4424 18.856 9.21635C18.856 5.99026 16.2691 3.375 13.0781 3.375C9.8871 3.375 7.30027 5.99026 7.30027 9.21635C7.30027 12.4424 9.8871 15.0577 13.0781 15.0577ZM4.23055 19.7308C4.36871 17.7318 5.71055 15.9688 7.72882 14.833C8.91472 16.0807 10.8686 16.6154 13.0781 16.6154C15.2876 16.6154 17.2415 16.0807 18.4274 14.833C20.4457 15.9688 21.7875 17.7318 21.9257 19.7308H21.9375V20.0729V20.625C21.9375 22.2819 20.5944 23.625 18.9375 23.625H7.21875C5.5619 23.625 4.21875 22.2819 4.21875 20.625V20.0729V19.7308H4.23055Z" fill="#e8d95f"/>
</g>
<defs>
<clipPath id="clip0_4397_170342">
<rect width="17.7188" height="20.25" fill="white" transform="translate(4.21875 3.375)"/>
</clipPath>
</defs>
</svg>
