<svg width="27" height="27" viewBox="0 0 27 27" fill="none" xmlns="http://www.w3.org/2000/svg">
<path fill-rule="evenodd" clip-rule="evenodd" d="M13.1142 4.21875C12.562 4.21875 12.1142 4.66647 12.1142 5.21875V5.44625C12.1142 5.58768 12.1436 5.72226 12.1966 5.84422C9.33136 6.47608 7.17875 9.16499 7.17875 12.3863C7.17875 12.6788 7.1965 12.9669 7.23093 13.2496C6.90749 15.125 6.34999 17.503 5.61304 17.955C5.52346 18.0099 5.42725 18.0751 5.32588 18.1485C3.91059 19.1743 4.83021 21.2962 6.57812 21.2962H10.065C10.5747 22.1614 11.9498 22.7813 13.5663 22.7813C15.1827 22.7813 16.5579 22.1614 17.0675 21.2963H20.4019C22.1498 21.2963 23.0694 19.1743 21.6541 18.1485C21.5528 18.0751 21.4565 18.01 21.367 17.955C20.63 17.503 20.0725 15.125 19.7491 13.2496C19.7835 12.967 19.8013 12.6788 19.8013 12.3863C19.8013 9.23912 17.7466 6.60012 14.9801 5.89109C15.0468 5.75711 15.0842 5.60606 15.0842 5.44625V5.21875C15.0842 4.66647 14.6365 4.21875 14.0842 4.21875H13.1142Z" fill="#e8d95f"/>
</svg>
