<svg width="32" height="32" viewBox="0 0 32 32" fill="none" xmlns="http://www.w3.org/2000/svg">
<path fill-rule="evenodd" clip-rule="evenodd" d="M16.4997 27C22.8509 27 27.9997 21.8513 27.9997 15.5C27.9997 9.14873 22.8509 4 16.4997 4C11.6899 4 7.56982 6.95271 5.85316 11.1443C5.83873 11.1796 5.82594 11.2148 5.81472 11.25H3.60254L7.49965 15L11.3968 11.25H9.1368C10.6065 8.70934 13.3535 7 16.4997 7C21.1941 7 24.9997 10.8056 24.9997 15.5C24.9997 20.1944 21.1941 24 16.4997 24C13.4195 24 10.7219 22.3616 9.23099 19.9088C8.90587 19.3739 8.34921 19 7.72329 19C6.64417 19 5.88197 20.0554 6.39905 21.0025C8.34985 24.5759 12.1417 27 16.4997 27ZM14.9997 10C14.9997 9.44772 15.4474 9 15.9997 9C16.5519 9 16.9997 9.44772 16.9997 10V16.5452L18.972 14.7203C19.3774 14.3452 20.0101 14.3697 20.3851 14.7751C20.7602 15.1805 20.7357 15.8132 20.3303 16.1883L17.0919 19.1846C16.6866 19.5597 16.0539 19.5351 15.6788 19.1297C15.6053 19.0503 15.5471 18.9621 15.5042 18.8688C15.2028 18.6965 14.9997 18.372 14.9997 18V10Z" fill="#E8D95F"/>
</svg>
