<svg width="32" height="32" viewBox="0 0 32 32" fill="none" xmlns="http://www.w3.org/2000/svg">
<path fill-rule="evenodd" clip-rule="evenodd" d="M15.358 5C14.8057 5 14.358 5.44772 14.358 6V6.64C14.358 6.74387 14.3738 6.84404 14.4032 6.93823C11.0336 7.70816 8.50851 10.8819 8.50851 14.68C8.50851 15.0267 8.52955 15.3682 8.57036 15.7032C8.18702 17.9259 7.52628 20.7443 6.65286 21.28C6.36342 21.4575 6.0156 21.7246 5.64473 22.0378C4.30935 23.1656 5.19746 25.24 6.94538 25.24H11.9293C12.5333 26.2654 14.1631 27 16.0789 27C17.9947 27 19.6245 26.2654 20.2285 25.24H25.0316C26.7796 25.24 27.6677 23.1656 26.3323 22.0378C25.9614 21.7246 25.6136 21.4575 25.3242 21.28C24.4508 20.7443 23.79 17.9259 23.4067 15.7032C23.4475 15.3683 23.4685 15.0267 23.4685 14.68C23.4685 10.972 21.0619 7.85918 17.8123 6.9971C17.8547 6.8862 17.878 6.76581 17.878 6.64V6C17.878 5.44772 17.4303 5 16.878 5H15.358Z" fill="white"/>
</svg>
