<svg width="32" height="32" viewBox="0 0 32 32" fill="none" xmlns="http://www.w3.org/2000/svg">
<path fill-rule="evenodd" clip-rule="evenodd" d="M18.0647 4.19995C18.0647 3.64767 18.5124 3.19995 19.0647 3.19995H19.4094C19.9617 3.19995 20.4094 3.64767 20.4094 4.19995V7.47541C20.4094 8.0277 19.9617 8.47541 19.4094 8.47541H19.0647C18.5124 8.47541 18.0647 8.02769 18.0647 7.47541V4.19995ZM17.4786 4.66645C17.4786 4.02136 16.8728 3.54348 16.2792 3.79603C13.8723 4.82006 12.2031 7.05521 12.2031 9.64773L12.2032 9.64777H12.5404L12.5404 9.64778H11.617C11.2933 9.64778 11.0309 9.91022 11.0309 10.2339C11.0309 10.5577 11.2933 10.8201 11.617 10.8201H26.8572C27.181 10.8201 27.4434 10.5577 27.4434 10.2339C27.4434 9.91022 27.181 9.64778 26.8572 9.64778L26.271 9.64777L26.271 9.64773C26.271 7.05524 24.6019 4.8201 22.195 3.79606C21.6014 3.5435 20.9956 4.02138 20.9956 4.66648V8.06163C20.9956 8.61392 20.5479 9.06163 19.9956 9.06163H18.4786C17.9263 9.06163 17.4786 8.61392 17.4786 8.06163V4.66645ZM19.2005 18.2373C15.4469 18.2373 12.3977 15.1881 12.344 11.4062H26.0569C26.0032 15.1881 22.9541 18.2373 19.2005 18.2373ZM19.237 14.9233L19.1958 14.9232H19.2783L19.237 14.9233ZM9.03138 22.1994C8.85073 22.7088 8.7378 23.2387 8.70016 23.7833H8.68616V24.1894V26.405C8.68616 27.5095 9.58159 28.405 10.6862 28.405H27.7147C28.8193 28.405 29.7147 27.5095 29.7147 26.405V24.1894V23.7833H29.7007C29.5367 21.411 27.9443 19.3187 25.549 17.9706C24.1416 19.4514 21.8227 20.086 19.2004 20.086C16.5782 20.086 14.2593 19.4514 12.8519 17.9706C11.9633 18.4707 11.1852 19.0732 10.5496 19.7544L13.2644 22.2492C13.8393 22.7775 13.877 23.6718 13.3487 24.2467C12.8204 24.8216 11.9261 24.8594 11.3512 24.3311L9.03138 22.1994ZM3.63119 17.0326C3.14533 16.5861 2.4225 16.8813 2.68703 17.4858C2.82454 17.8 3.02949 18.0931 3.30044 18.3421C4.09374 19.0711 5.21599 19.2044 6.09049 18.7547L7.53306 20.0804L6.50394 21.1582L5.72167 20.4113L4.95324 20.708L5.29166 21.0311L2.83459 23.6045C2.34386 24.1185 2.36269 24.9329 2.87665 25.4237C3.39062 25.9144 4.20508 25.8956 4.69581 25.3816L7.15288 22.8082L7.49106 23.1311L7.75193 22.3498L6.91831 21.5538L7.95499 20.4681L11.7633 23.9677C12.1256 24.3006 12.6893 24.2768 13.0222 23.9145C13.3551 23.5522 13.3313 22.9886 12.969 22.6556L9.18573 19.1791L11.0945 17.1799L11.3015 17.3776L12.6143 16.0028L12.6993 15.5582L12.2258 15.1062L11.7857 15.2116L10.473 16.5865L10.6801 16.7843L8.7638 18.7913L7.23458 17.3861C7.50008 16.5194 7.25084 15.519 6.51557 14.8433C6.24455 14.5943 5.93514 14.4147 5.61033 14.3042C4.9856 14.0917 4.75244 14.8369 5.23834 15.2834C5.58326 15.6004 5.60593 16.137 5.28897 16.4819L4.82944 16.9819C4.51254 17.3268 3.97606 17.3495 3.63119 17.0326ZM12.5671 23.4963C12.752 23.295 12.732 22.9758 12.5224 22.7832C12.3128 22.5906 11.993 22.5976 11.8081 22.7988C11.6232 23.0001 11.6432 23.3194 11.8527 23.5119C12.0623 23.7045 12.3821 23.6975 12.5671 23.4963ZM5.83961 21.8122L5.50123 21.4891L3.1224 23.9805C2.94396 24.1674 2.95081 24.4636 3.13769 24.642L5.83961 21.8122Z" fill="white"/>
</svg>
