<svg width="32" height="32" viewBox="0 0 32 32" fill="none" xmlns="http://www.w3.org/2000/svg">
<path fill-rule="evenodd" clip-rule="evenodd" d="M9 5C7.89543 5 7 5.89543 7 7V26C7 27.1046 7.89543 28 9 28H22.6923C23.7969 28 24.6923 27.1046 24.6923 26V9.42308L23.3431 8.07385L23.3427 8.07352L21.7938 6.5246L21.7932 6.52395L20.2692 5H9ZM20.1975 6.76923H10.7692C9.66466 6.76923 8.76923 7.66466 8.76923 8.76923V24.2308C8.76923 25.3353 9.66466 26.2308 10.7692 26.2308H20.9231C22.0276 26.2308 22.9231 25.3353 22.9231 24.2308V9.73878C22.888 9.7491 22.8518 9.75772 22.8145 9.76449L21.1107 10.0743C20.4633 10.192 19.8806 9.66311 19.9353 9.00736L20.0902 7.14866C20.1018 7.00859 20.1397 6.88135 20.1975 6.76923ZM9.65385 11.1923C9.65385 10.7037 10.0499 10.3077 10.5385 10.3077H18.5C18.9886 10.3077 19.3846 10.7037 19.3846 11.1923C19.3846 11.6809 18.9886 12.0769 18.5 12.0769H10.5385C10.0499 12.0769 9.65385 11.6809 9.65385 11.1923ZM10.5385 13.8462C10.0499 13.8462 9.65385 14.2422 9.65385 14.7308C9.65385 15.2193 10.0499 15.6154 10.5385 15.6154H21.1538C21.6424 15.6154 22.0385 15.2193 22.0385 14.7308C22.0385 14.2422 21.6424 13.8462 21.1538 13.8462H10.5385Z" fill="white"/>
</svg>
