<svg width="32" height="32" viewBox="0 0 32 32" fill="none" xmlns="http://www.w3.org/2000/svg">
<path fill-rule="evenodd" clip-rule="evenodd" d="M24.4839 16.3086C24.4839 16.9982 24.7373 17.6769 25.2806 18.1017L26.7909 19.2827C27.0058 19.4524 27.0623 19.7577 26.9266 20.0065L24.6649 23.9193C24.5292 24.168 24.2351 24.2698 23.975 24.1681L22.1786 23.4466C21.5457 23.1924 20.8375 23.3004 20.2496 23.6461C19.6532 23.9968 19.1878 24.566 19.0896 25.2508L18.8183 27.1422C18.7844 27.4136 18.5469 27.6172 18.2642 27.6172H13.7408C13.4581 27.6172 13.2206 27.4136 13.1867 27.1422L12.9144 25.2433C12.8168 24.5631 12.356 24.0002 11.7622 23.6543C11.1695 23.3092 10.4552 23.194 9.81876 23.4496L8.02995 24.1681C7.78116 24.2585 7.47582 24.168 7.34012 23.9193L5.0784 20.0065C4.9427 19.7577 4.99924 19.4524 5.21411 19.2827L6.72442 18.1017C7.26767 17.6769 7.52106 16.9982 7.52106 16.3086C7.52106 15.619 7.26767 14.9403 6.72442 14.5155L5.21411 13.3344C4.99924 13.1648 4.93139 12.8595 5.0784 12.6107L7.34012 8.69791C7.47582 8.44912 7.76985 8.34734 8.02995 8.44912L9.82635 9.17057C10.4593 9.42475 11.1675 9.31681 11.7554 8.97106C12.3518 8.62037 12.8172 8.0512 12.9154 7.36638L13.1867 5.47496C13.2206 5.20355 13.4581 5 13.7408 5H18.2642C18.5469 5 18.7844 5.20355 18.8183 5.47496L19.0906 7.37387C19.1882 8.05404 19.649 8.61701 20.2428 8.96283C20.8355 9.30802 21.5498 9.42313 22.1862 9.16752L23.975 8.44912C24.2238 8.35865 24.5292 8.44912 24.6649 8.69791L26.9266 12.6107C27.0623 12.8595 27.0058 13.1648 26.7909 13.3344L25.2806 14.5155C24.7373 14.9403 24.4839 15.6189 24.4839 16.3086ZM12.0446 16.3086C12.0446 18.4912 13.8201 20.2666 16.0026 20.2666C18.1852 20.2666 19.9606 18.4912 19.9606 16.3086C19.9606 14.1261 18.1852 12.3506 16.0026 12.3506C13.8201 12.3506 12.0446 14.1261 12.0446 16.3086Z" fill="white"/>
</svg>
