<svg width="32" height="32" viewBox="0 0 32 32" fill="#" xmlns="http://www.w3.org/2000/svg">
<path fill-rule="evenodd" clip-rule="evenodd" d="M10 5C8.34315 5 7 6.34315 7 8V24.0909C7 25.7478 8.34315 27.0909 10 27.0909H22C23.6569 27.0909 25 25.7478 25 24.0909V8C25 6.34315 23.6569 5 22 5H10ZM11.6364 8.27268C9.97951 8.27268 8.63636 9.61583 8.63636 11.2727V22.4545C8.63636 24.1114 9.97951 25.4545 11.6364 25.4545H20.3636C22.0205 25.4545 23.3636 24.1114 23.3636 22.4545V11.2727C23.3636 9.61583 22.0205 8.27268 20.3636 8.27268H11.6364ZM14.3636 10.7273H21.7273V12.3636H14.3636V10.7273ZM21.7273 15.6364H14.3636V17.2727H21.7273V15.6364ZM14.3636 20.5455H21.7273V22.1818H14.3636V20.5455ZM11.9091 13.1818C12.8128 13.1818 13.5455 12.4492 13.5455 11.5455C13.5455 10.6417 12.8128 9.90909 11.9091 9.90909C11.0054 9.90909 10.2727 10.6417 10.2727 11.5455C10.2727 12.4492 11.0054 13.1818 11.9091 13.1818ZM13.5455 16.4545C13.5455 17.3583 12.8128 18.0909 11.9091 18.0909C11.0054 18.0909 10.2727 17.3583 10.2727 16.4545C10.2727 15.5508 11.0054 14.8182 11.9091 14.8182C12.8128 14.8182 13.5455 15.5508 13.5455 16.4545ZM12.4419 21.7213L13.9192 20.0595L13.1718 19.3951L11.6945 21.057C11.5034 21.272 11.1707 21.2818 10.9673 21.0783L10.6263 20.7374L9.91917 21.4445L10.2602 21.7854C10.8704 22.3957 11.8685 22.3664 12.4419 21.7213Z" fill="#282828"/>
</svg>
