<svg width="32" height="32" viewBox="0 0 32 32" fill="none" xmlns="http://www.w3.org/2000/svg">
<path fill-rule="evenodd" clip-rule="evenodd" d="M12.9215 12.9654C13.6687 12.2288 14.1724 11.2366 14.2837 10.1109C14.5364 7.55363 12.6682 5.27565 10.1109 5.0229C7.55363 4.77015 5.27565 6.63835 5.0229 9.19564C4.83056 11.1418 5.86653 12.9261 7.49975 13.7793L17.8704 24.9338C18.6263 25.8894 19.7542 26.5487 21.0624 26.678C23.6197 26.9307 25.8976 25.0625 26.1504 22.5052C26.4031 19.9479 24.5349 17.67 21.9776 17.4172C20.7431 17.2952 19.5736 17.6675 18.6657 18.373C18.659 18.367 18.6523 18.3611 18.6456 18.3552C17.9046 18.6134 16.3653 17.8925 14.9472 16.569C13.5055 15.2235 12.6765 13.7101 12.9215 12.9654Z" fill="#BDBDBD"/>
</svg>
