<svg width="32" height="32" viewBox="0 0 32 32" fill="none" xmlns="http://www.w3.org/2000/svg">
<path fill-rule="evenodd" clip-rule="evenodd" d="M4 8C4 6.89543 4.89543 6 6 6H26C27.1046 6 28 6.89543 28 8C28 9.10457 27.1046 10 26 10H6C4.89543 10 4 9.10457 4 8ZM4 16C4 14.8954 4.89543 14 6 14H20C21.1046 14 22 14.8954 22 16C22 17.1046 21.1046 18 20 18H6C4.89543 18 4 17.1046 4 16ZM6 22C4.89543 22 4 22.8954 4 24C4 25.1046 4.89543 26 6 26H26C27.1046 26 28 25.1046 28 24C28 22.8954 27.1046 22 26 22H6Z" fill="white"/>
</svg>
