<svg width="32" height="32" viewBox="0 0 32 32" fill="none" xmlns="http://www.w3.org/2000/svg">
<path fill-rule="evenodd" clip-rule="evenodd" d="M5 5C4.44772 5 4 5.44772 4 6V8.42856V9.14286V12.6097C4 13.3937 4.85712 13.7857 5.71425 13.7857V23.8571H5C4.44772 23.8571 4 24.3049 4 24.8571V25.4286C4 25.9809 4.44772 26.4286 5 26.4286H6.71227L6.71425 26.4286H7.28568L7.28765 26.4286H24.7123L24.7142 26.4286H25.2857L25.2877 26.4286H27C27.5523 26.4286 28 25.9809 28 25.4286V24.8571C28 24.3049 27.5523 23.8571 27 23.8571H26.2857V13.7857C27.1428 13.7857 28 13.3937 28 12.6098V9.14769C28 9.14608 28 9.14447 28 9.14286V6C28 5.44772 27.5523 5 27 5H5ZM21.1428 10.1429V12.6098C21.1428 14.1747 17.7274 14.1777 17.7143 12.6188C17.7011 14.1777 14.2858 14.1747 14.2858 12.6098V10.1429H14.2857V12.6098C14.2857 14.1777 10.8572 14.1777 10.8572 12.6098V10.1429H10.8572V12.6098C10.8572 13.666 9.30121 14.0107 8.28568 13.6439V23.8571H15.153C15.1463 23.8105 15.1428 23.7628 15.1428 23.7143V17.1429C15.1428 16.5906 15.5906 16.1429 16.1428 16.1429H21C21.5523 16.1429 22 16.5906 22 17.1429V23.7143C22 23.7628 21.9965 23.8105 21.9899 23.8571H23.7142V13.6439C22.6987 14.0107 21.1428 13.666 21.1428 12.6098L21.1428 10.1429ZM7.42858 11.8673V10.1429H7.42857V11.8673C7.42858 11.8673 7.42858 11.8673 7.42858 11.8673ZM20.2858 22.8571C20.2858 23.4085 19.8396 23.8556 19.2886 23.8571H17.8544C17.3034 23.8556 16.8572 23.4085 16.8572 22.8571V18.8571C16.8572 18.3049 17.3049 17.8571 17.8572 17.8571H19.2858C19.838 17.8571 20.2858 18.3049 20.2858 18.8571V22.8571ZM14.2857 17.1429C14.2857 16.5906 13.838 16.1429 13.2857 16.1429H10.1428C9.59055 16.1429 9.14283 16.5906 9.14283 17.1429V18.5714C9.14283 19.1237 9.59055 19.5714 10.1428 19.5714H13.2857C13.838 19.5714 14.2857 19.1237 14.2857 18.5714V17.1429Z" fill="white"/>
</svg>
