<svg width="32" height="32" viewBox="0 0 32 32" fill="none" xmlns="http://www.w3.org/2000/svg">
<path fill-rule="evenodd" clip-rule="evenodd" d="M5 2H20.7579L26.9231 8.08305V30.0128H5V2ZM20.389 3.37869L20.5834 9.07845L26.2849 9.21443L20.389 3.37869ZM20.482 12.6188C20.965 11.9503 21.8984 11.8 22.5668 12.283C23.2352 12.766 23.3855 13.6994 22.9025 14.3678L16.3897 23.3812C15.9068 24.0497 14.9734 24.2 14.305 23.717C14.273 23.6939 14.2423 23.6698 14.2128 23.6448C14.0914 23.5833 13.9765 23.504 13.8718 23.4068L10.4772 20.2553C9.8729 19.6942 9.83782 18.7494 10.3989 18.1451C10.96 17.5407 11.9047 17.5056 12.5091 18.0667L14.9249 20.3095L20.482 12.6188Z" fill="#e8d95f"/>
</svg>
