<svg width="32" height="32" viewBox="0 0 32 32" fill="none" xmlns="http://www.w3.org/2000/svg">
<path d="M27.3217 22.2644C25.6 20.1654 24.3844 19.0968 24.3844 13.3099C24.3844 8.0106 21.6677 6.1226 19.4316 5.20565C19.1346 5.0841 18.855 4.80494 18.7645 4.50108C18.3723 3.1714 17.2727 2 15.8111 2C14.3495 2 13.2492 3.17207 12.861 4.50241C12.7705 4.80962 12.4909 5.0841 12.1939 5.20565C9.9552 6.12394 7.24114 8.00525 7.24114 13.3099C7.23778 19.0968 6.02222 20.1654 4.30045 22.2644C3.58707 23.1339 4.21195 24.4396 5.45969 24.4396H26.1692C27.4102 24.4396 28.0311 23.1299 27.3217 22.2644Z" stroke="white" stroke-width="3" stroke-linecap="round" stroke-linejoin="round"/>
<path d="M19.9429 24.4395V25.5024C19.9429 26.63 19.5074 27.7114 18.7322 28.5088C17.957 29.3061 16.9056 29.7541 15.8093 29.7541C14.713 29.7541 13.6617 29.3061 12.8865 28.5088C12.1113 27.7114 11.6758 26.63 11.6758 25.5024V24.4395" stroke="white" stroke-width="3" stroke-linecap="round" stroke-linejoin="round"/>
</svg>
