<svg width="32" height="32" viewBox="0 0 32 32" fill="none" xmlns="http://www.w3.org/2000/svg">
<path fill-rule="evenodd" clip-rule="evenodd" d="M7 17H3V29H7V27.6375L10 27.2625C11.0731 27.3448 12.491 27.8682 13.8204 28.3588L13.8204 28.3588C15.0847 28.8254 16.2688 29.2625 17 29.2625C18.5 29.2625 26.5 26.2625 28.5 25.2625C30.5 24.2625 29 21.2625 27.5 21.7625C26.6208 22.0556 23.8519 22.7738 21.7107 23.3181C22.3949 22.2648 22.1884 20.5557 20.6358 20.2048L18.054 19.6212C15.4961 18.8497 12.1087 17.8043 11.5 17.5C10.701 17.1005 8.52939 17.2501 7 18.0418V17ZM7 19.5V26.5C8.64019 26.1031 9.54584 25.9172 11 26C11.2393 26.099 11.5686 26.2539 11.9537 26.4351C13.4574 27.1425 15.8134 28.2508 17 28C18.4905 27.6849 25.7262 25.417 27.2605 24.8893C28.7948 24.3616 27.6441 22.7785 26.4934 23.0424C25.3427 23.3062 19.5 24.8893 19.5 24.8893L14 23L14.5 22.5C14.5 22.5 17.5 23 19.5 23C21.5 23 21.5 21.5 20.5 21C20.5 21 12.5 19 11 18.5C9.70544 18.0685 8.5823 18.6646 7.50816 19.2347L7.50815 19.2347C7.3377 19.3252 7.16848 19.415 7 19.5Z" fill="#e8d95f"/>
<path fill-rule="evenodd" clip-rule="evenodd" d="M16.5 17C19.5376 17 22 14.5376 22 11.5C22 8.46243 19.5376 6 16.5 6C13.4624 6 11 8.46243 11 11.5C11 14.5376 13.4624 17 16.5 17ZM17 7V8.05001C17.5055 8.13532 18.0226 8.3249 18.5258 8.58432L18.0675 9.47314C17.6808 9.27374 17.3247 9.1396 17 9.06656V10.7055C17.1862 10.7157 17.3835 10.7397 17.5881 10.7864C18.2698 10.942 18.7927 11.3625 18.9522 11.9933C19.1065 12.6036 18.8816 13.2621 18.4097 13.8365C18.1042 14.2083 17.6696 14.3891 17.2485 14.4603C17.1665 14.4742 17.0835 14.4842 17 14.4907V15.5H16.125V14.4434C16.0728 14.4343 16.0211 14.4241 15.9701 14.413C15.5655 14.3251 15.1722 14.1726 14.8668 13.9721C14.5964 13.7945 14.2442 13.477 14.2442 13.0201H15.2442C15.2442 13.0009 15.2418 12.9892 15.2408 12.9844L15.2404 12.9818L15.2421 12.9841C15.2497 12.9958 15.2852 13.0505 15.4157 13.1362C15.5859 13.2479 15.8365 13.3539 16.125 13.4227V11.7378L16.0801 11.7413C15.683 11.7715 15.1294 11.8037 14.6803 11.3937C14.3549 11.0966 14.0583 10.6793 14.0075 10.1697C13.9541 9.63362 14.1834 9.11314 14.6803 8.65946C15.1086 8.26854 15.601 8.06831 16.125 8.01476V7H17ZM15.3545 9.398C15.568 9.20312 15.8253 9.07701 16.125 9.02596V10.7343C16.083 10.7378 16.0427 10.7412 16.0043 10.7441C15.5816 10.7763 15.452 10.7441 15.3545 10.6552C15.1335 10.4533 15.0202 10.247 15.0026 10.0706C14.9877 9.92063 15.0317 9.69272 15.3545 9.398ZM17 13.4861V11.7069C17.1185 11.7156 17.2395 11.7326 17.3656 11.7613C17.7769 11.8552 17.9372 12.0584 17.9827 12.2384C18.0334 12.4388 17.985 12.7782 17.637 13.2017C17.5326 13.3287 17.3524 13.4286 17.0818 13.4743C17.055 13.4788 17.0277 13.4827 17 13.4861Z" fill="#e8d95f"/>
</svg>
