<svg width="32" height="32" viewBox="0 0 32 32" fill="none" xmlns="http://www.w3.org/2000/svg">
<path fill-rule="evenodd" clip-rule="evenodd" d="M16.409 6.22628C16.0883 5.70247 16.2529 5.01785 16.7767 4.69712C17.3005 4.3764 17.9851 4.54103 18.3059 5.06483L20.4821 8.61912C21.523 8.49991 22.6385 9.04307 23.2753 10.0832C23.9122 11.1234 23.8889 12.3638 23.3095 13.2367L25.046 16.0728C25.3667 16.5966 25.2021 17.2812 24.6783 17.6019C24.1573 17.9209 23.4773 17.7598 23.1544 17.2427L10.6085 22.0456C10.6638 22.2486 10.6779 22.4577 10.6535 22.6613C10.981 22.7796 11.272 23.0059 11.468 23.326L11.9534 24.1188C12.113 24.3794 12.2239 24.6669 12.2805 24.9673L12.6078 26.7021C12.7274 27.3361 12.4427 27.9779 11.8926 28.3148C10.8884 28.9296 9.59192 28.2472 9.53035 27.0713L9.5074 26.6331C9.49159 26.3313 9.40066 26.0383 9.24285 25.7806L8.75649 24.9862C8.56884 24.6798 8.49743 24.3348 8.52987 24.0027C8.18302 23.8859 7.87367 23.6513 7.6676 23.3147L7.24353 22.6221C7.21618 22.6414 7.18801 22.66 7.15904 22.6777C6.44476 23.1151 5.51118 22.8906 5.07382 22.1763L4.33472 20.9692C3.89737 20.2549 4.12187 19.3213 4.83615 18.884C4.86512 18.8662 4.89445 18.8496 4.92409 18.834L4.28885 17.7965C3.82234 17.0346 4.0618 16.0388 4.8237 15.5723C5.55536 15.1243 6.50275 15.3273 6.98994 16.0189L16.7054 6.71045L16.409 6.22628ZM9.49449 16.3279L16.8211 9.31017L21.0324 16.188L11.6167 19.7939L9.49449 16.3279ZM22.3493 6.48541C22.1642 6.76463 22.2405 7.14106 22.5197 7.32618C22.7989 7.51131 23.1753 7.43504 23.3605 7.15582L24.4778 5.47058C24.663 5.19136 24.5867 4.81493 24.3075 4.62981C24.0282 4.44468 23.6518 4.52095 23.4667 4.80017L22.3493 6.48541ZM23.7163 9.74024C23.5965 9.42737 23.753 9.07663 24.0659 8.95684L25.9542 8.23384C26.2671 8.11405 26.6178 8.27057 26.7376 8.58344C26.8574 8.89631 26.7009 9.24704 26.388 9.36684L24.4997 10.0898C24.1868 10.2096 23.8361 10.0531 23.7163 9.74024ZM25.5171 11.7046C25.1822 11.6948 24.9028 11.9584 24.8931 12.2933C24.8833 12.6282 25.1469 12.9075 25.4818 12.9173L27.5029 12.9761C27.8378 12.9858 28.1172 12.7223 28.1269 12.3874C28.1367 12.0525 27.8731 11.7731 27.5382 11.7634L25.5171 11.7046Z" fill="white"/>
</svg>
