<svg width="32" height="32" viewBox="0 0 32 32" fill="none" xmlns="http://www.w3.org/2000/svg">
<path fill-rule="evenodd" clip-rule="evenodd" d="M14.2205 19.9107C18.1478 19.9107 21.3316 16.7269 21.3316 12.7996C21.3316 8.87223 18.1478 5.68848 14.2205 5.68848C10.2931 5.68848 7.10938 8.87223 7.10938 12.7996C7.10938 16.7269 10.2931 19.9107 14.2205 19.9107ZM14.2205 17.7774C16.9696 17.7774 19.1983 15.5487 19.1983 12.7996C19.1983 10.0504 16.9696 7.82181 14.2205 7.82181C11.4713 7.82181 9.24271 10.0504 9.24271 12.7996C9.24271 15.5487 11.4713 17.7774 14.2205 17.7774Z" fill="white"/>
<path d="M16.9328 19.1201C16.613 18.6253 16.7549 17.965 17.2497 17.6453C17.7445 17.3255 18.4048 17.4674 18.7245 17.9622L23.2004 24.888C23.5201 25.3827 23.3782 26.043 22.8835 26.3628C22.3887 26.6826 21.7284 26.5407 21.4086 26.0459L16.9328 19.1201Z" fill="white"/>
</svg>
