<svg width="32" height="32" viewBox="0 0 32 32" fill="none" xmlns="http://www.w3.org/2000/svg">
<path fill-rule="evenodd" clip-rule="evenodd" d="M3.07144 8C3.07144 7.44772 3.51915 7 4.07144 7H16.5714C17.1237 7 17.5714 7.44772 17.5714 8V15C17.5714 15.5523 17.1237 16 16.5714 16H4.07144C3.51915 16 3.07144 15.5523 3.07144 15V8ZM11.9371 9.15492C11.7162 8.91917 11.7162 8.53833 11.9371 8.30258C12.1579 8.06682 12.5203 8.06682 12.7354 8.29653L15.3344 11.0712C15.5552 11.3069 15.5552 11.6878 15.3344 11.9235L12.7354 14.6982C12.5146 14.9339 12.1579 14.9339 11.9371 14.6982C11.7162 14.4624 11.7162 14.0816 11.9371 13.8458L13.5021 12.175H6.025C5.65221 12.175 5.35 11.8728 5.35 11.5C5.35 11.1272 5.65221 10.825 6.025 10.825H13.5014L11.9371 9.15492ZM3.00002 18.25C3.00002 17.6287 3.5037 17.125 4.12502 17.125H5.4375H17.6071C18.1594 17.125 18.6071 16.6773 18.6071 16.125V10.375H20H26.2535L30 16.5542V19.0329L28.3092 21.625H26.8293C26.4175 20.3142 25.3062 19.375 24 19.375C22.6938 19.375 21.5825 20.3142 21.1707 21.625H20H13.8293C13.4175 20.3142 12.3062 19.375 11 19.375C9.6938 19.375 8.58256 20.3142 8.17073 21.625H7H6H2.5625C2.25184 21.625 2 21.3732 2 21.0625C2 20.7518 2.25184 20.5 2.5625 20.5H5.4375C5.74817 20.5 6 20.2482 6 19.9375C6 19.6268 5.74816 19.375 5.4375 19.375H4.12502C3.5037 19.375 3.00002 18.8713 3.00002 18.25ZM27.1574 17.2619H20V11.9723H25.1871L28.0669 15.9851L27.1574 17.2619ZM24 24C25.1046 24 26 23.1046 26 22C26 20.8954 25.1046 20 24 20C22.8954 20 22 20.8954 22 22C22 23.1046 22.8954 24 24 24ZM13 22C13 23.1046 12.1046 24 11 24C9.89543 24 9 23.1046 9 22C9 20.8954 9.89543 20 11 20C12.1046 20 13 20.8954 13 22Z" fill="white"/>
</svg>
