<svg width="32" height="32" viewBox="0 0 32 32" fill="none" xmlns="http://www.w3.org/2000/svg">
<path fill-rule="evenodd" clip-rule="evenodd" d="M16.1961 2L28.3921 9.04135L16.1961 16.0827L11.7527 13.5173L11.7526 13.5173L16.196 16.0827V30.1654L4 23.1241V9.04138L8.09379 11.4049L8.09389 11.4049L4.00015 9.04135L16.1961 2ZM16.2129 15.1438L12.5712 13.0447L22.5037 7.31018L25.8577 9.27262L16.2129 15.1438ZM16.2129 3.6294L18.8693 5.18367L8.90935 10.9341L6.02689 9.27263L16.2129 3.6294ZM15.274 16.5522L5.0059 10.5502V22.6211L15.274 28.4329V16.5522ZM28.401 9.04138L16.205 16.0827V30.1654L28.401 23.1241V9.04138ZM27.4472 10.7033L17.1439 16.5522L17.0768 28.1536L27.4472 22.3077V10.7033ZM11.4141 14.3224L7.75534 12.21L7.75534 17.9604L9.58474 17.5643L11.4141 20.0728V14.3224Z" fill="white"/>
</svg>
