<svg width="32" height="32" viewBox="0 0 32 32" fill="none" xmlns="http://www.w3.org/2000/svg">
<path fill-rule="evenodd" clip-rule="evenodd" d="M11.2301 20.6045C11.4988 20.6715 11.7723 20.7305 12.0501 20.7811C12.2393 22.0685 12.9548 23.2346 14.0289 24.1518L13.5623 27.8507L17.5087 25.8891C18.2927 26.0847 19.1302 26.1905 20 26.1905C24.4183 26.1905 28 23.4615 28 20.0952C28 18.0424 26.668 16.2266 24.6266 15.1221C24.87 14.4463 25 13.7347 25 13C25 8.58172 20.299 5 14.5 5C8.70101 5 4 8.58172 4 13C4 15.0446 5.00666 16.91 6.66294 18.3242L6.05053 23.1789L11.2301 20.6045ZM22.7752 14.3767C22.9222 13.9347 23 13.4737 23 13C23 9.68629 19.1944 7 14.5 7C9.80558 7 6 9.68629 6 13C6 14.6952 6.99595 16.2262 8.59736 17.3174L8.23398 20.1979L10.8311 18.4138C11.2643 18.5604 11.7179 18.6818 12.1881 18.7754C12.8481 16.4975 15.1805 14.6981 18.1541 14.1631C18.0554 13.9631 18 13.738 18 13.5C18 12.6716 18.6716 12 19.5 12C20.3284 12 21 12.6716 21 13.5C21 13.6897 20.9648 13.8711 20.9006 14.0382C21.5523 14.0938 22.1804 14.2091 22.7752 14.3767ZM9.5 15C10.3284 15 11 14.3284 11 13.5C11 12.6716 10.3284 12 9.5 12C8.67157 12 8 12.6716 8 13.5C8 14.3284 8.67157 15 9.5 15ZM16 13.5C16 14.3284 15.3284 15 14.5 15C13.6716 15 13 14.3284 13 13.5C13 12.6716 13.6716 12 14.5 12C15.3284 12 16 12.6716 16 13.5ZM26.4762 20.0952C26.4762 22.62 23.5767 24.6667 20 24.6667C18.9988 24.6667 18.0507 24.5063 17.2044 24.22L15.2258 25.5792L15.5027 23.3846C14.2826 22.5533 13.5238 21.3868 13.5238 20.0952C13.5238 17.5705 16.4233 15.5238 20 15.5238C23.5767 15.5238 26.4762 17.5705 26.4762 20.0952ZM17.3333 20.4762C17.3333 21.1074 16.8217 21.619 16.1905 21.619C15.5593 21.619 15.0476 21.1074 15.0476 20.4762C15.0476 19.845 15.5593 19.3333 16.1905 19.3333C16.8217 19.3333 17.3333 19.845 17.3333 20.4762ZM20 21.619C20.6312 21.619 21.1429 21.1074 21.1429 20.4762C21.1429 19.845 20.6312 19.3333 20 19.3333C19.3688 19.3333 18.8571 19.845 18.8571 20.4762C18.8571 21.1074 19.3688 21.619 20 21.619ZM24.9524 20.4762C24.9524 21.1074 24.4407 21.619 23.8095 21.619C23.1783 21.619 22.6667 21.1074 22.6667 20.4762C22.6667 19.845 23.1783 19.3333 23.8095 19.3333C24.4407 19.3333 24.9524 19.845 24.9524 20.4762Z" fill="white"/>
</svg>
