<svg width="32" height="32" viewBox="0 0 32 32" fill="none" xmlns="http://www.w3.org/2000/svg">
<path fill-rule="evenodd" clip-rule="evenodd" d="M26.2207 7.55094L27 5L24.3487 5.16331L25.0454 6.05195L16.7815 12.6444C16.5835 12.4882 16.334 12.3951 16.0627 12.3951C15.7287 12.3951 15.4275 12.5363 15.2151 12.7627L11.3905 10.4574C11.3031 9.89823 10.8214 9.47049 10.2402 9.47049C9.59703 9.47049 9.07567 9.99423 9.07567 10.6403C9.07567 10.8426 9.1268 11.033 9.2168 11.199L5.72385 17.7155L6.60522 18.1879L10.0337 11.7918C10.1007 11.8038 10.1697 11.8101 10.2402 11.8101C10.5742 11.8101 10.8754 11.6688 11.0877 11.4425L14.9124 13.7478C14.9998 14.307 15.4815 14.7347 16.0627 14.7347C16.7048 14.7347 17.2255 14.2126 17.2272 13.568L25.6625 6.83894L26.2207 7.55094ZM26.9002 11.2857H22.2073V27H26.9002V11.2857ZM12.8215 16H17.5144V27H12.8215V16ZM5 19.1429H9.69291V27H5V19.1429Z" fill="white"/>
</svg>
