<svg width="32" height="32" viewBox="0 0 32 32" fill="none" xmlns="http://www.w3.org/2000/svg">
<path fill-rule="evenodd" clip-rule="evenodd" d="M4 9C3.44772 9 3 9.44771 3 10V10.3503H8.68982L9.62921 11.5133C9.50726 11.7559 9.48198 12.0494 9.59512 12.3322L12.6075 19.8631C12.7855 20.3081 13.2542 20.5643 13.7248 20.4738L16.4444 19.9508L16.9497 20.5763L11.8076 21.4227L7.82186 12.0663V11.7645H7.69328L7.69327 11.7645L7.69326 11.7645H4C3.44772 11.7645 3 12.2122 3 12.7645V13.3718H6.63092L10.3105 22.0096L9.43008 23.8246C9.1633 23.856 8.92718 24.0194 8.8052 24.2634C8.53803 24.7977 8.92659 25.4264 9.524 25.4264H11.9087C11.8642 25.5521 11.8401 25.6874 11.8401 25.8283C11.8401 26.494 12.3798 27.0337 13.0455 27.0337C13.7113 27.0337 14.251 26.494 14.251 25.8283C14.251 25.6874 14.2268 25.5521 14.1824 25.4264H19.1414C19.097 25.5521 19.0729 25.6874 19.0729 25.8283C19.0729 26.494 19.6126 27.0337 20.2783 27.0337C20.9441 27.0337 21.4838 26.494 21.4838 25.8283C21.4838 25.6874 21.4596 25.5521 21.4152 25.4264H23.0911C23.5349 25.4264 23.8947 25.0666 23.8947 24.6228C23.8947 24.179 23.5349 23.8192 23.0911 23.8192H11.2191L11.5727 23.0903L21.1288 21.5174C21.5668 21.4453 21.8634 21.0318 21.7913 20.5939C21.7192 20.1559 21.3057 19.8594 20.8678 19.9314L18.1167 20.3843L17.6078 19.727L24.6724 18.3685C25.1432 18.2779 25.4836 17.8659 25.4836 17.3865V11.9609C25.4836 11.4086 25.0358 10.9609 24.4836 10.9609H10.8196L9.30131 9.0002L9.30118 9H4ZM11.5358 13.8738L11.2231 13.9277L11.6105 15.009L12.3391 14.8683L11.5358 13.8738ZM13.5323 16.3455L13.5657 16.5631L12.2439 16.8196L12.5316 17.857L13.7291 17.6258L14.0559 19.7521L14.9878 19.5704L14.7053 17.7977L13.5323 16.3455ZM16.6243 18.457L16.4168 17.1069L15.6878 17.2476L14.9497 16.2944L16.2531 16.0415L15.9651 14.1681L14.1819 14.5125L14.3404 15.5076L12.894 13.6397L13.1107 13.6024L12.8107 11.6506H13.7259L14.0121 13.447L15.8068 13.1377L15.5706 11.6015H16.4137L16.6496 12.9925L18.5708 12.6614L18.4021 11.5642L19.216 11.5563L19.3843 12.5212L21.3348 12.185L21.2347 11.5332H22.0995L22.1845 12.0386L24.5452 11.6317L24.776 12.4669L22.3359 12.938L22.6493 14.8L24.7769 14.387L24.7911 15.4899L22.8292 15.8687L23.1936 18.0339L22.2617 18.2156L21.9278 16.0427L20.0612 16.4032L20.4361 18.5528L19.5042 18.7345L19.1723 16.5748L17.3178 16.9329L17.6598 18.9492L17.0913 19.06L16.6243 18.457ZM19.0081 15.5067L17.1375 15.8698L16.8209 14.0029L18.7206 13.6361L19.0081 15.5067ZM21.7632 14.972L19.8756 15.3384L19.5508 13.4758L21.4761 13.104L21.7632 14.972Z" fill="white"/>
</svg>
