<svg width="32" height="32" viewBox="0 0 32 32" fill="none" xmlns="http://www.w3.org/2000/svg">
<path fill-rule="evenodd" clip-rule="evenodd" d="M30 16C30 23.732 23.732 30 16 30C8.26801 30 2 23.732 2 16C2 8.26801 8.26801 2 16 2C23.732 2 30 8.26801 30 16ZM27 16C27 22.0751 22.0751 27 16 27C9.92487 27 5 22.0751 5 16C5 9.92487 9.92487 5 16 5C22.0751 5 27 9.92487 27 16ZM14.4863 18.9961H16.3027C16.3027 18.5143 16.3646 18.0651 16.4883 17.6484C16.612 17.2318 16.8529 16.8574 17.2109 16.5254C17.6276 16.1348 18.0215 15.7246 18.3926 15.2949C18.7637 14.8652 19.0664 14.4062 19.3008 13.918C19.5417 13.4232 19.6621 12.8828 19.6621 12.2969C19.6621 11.5352 19.5091 10.8776 19.2031 10.3242C18.8971 9.76432 18.4512 9.33464 17.8652 9.03516C17.2858 8.73568 16.5827 8.58594 15.7559 8.58594C15.0072 8.58594 14.3301 8.72591 13.7246 9.00586C13.1191 9.28581 12.6374 9.68945 12.2793 10.2168C11.9277 10.7441 11.7454 11.3757 11.7324 12.1113H13.5391C13.5456 11.6556 13.653 11.2878 13.8613 11.0078C14.0697 10.7214 14.3431 10.5098 14.6816 10.373C15.0202 10.2363 15.3783 10.168 15.7559 10.168C16.2116 10.168 16.5924 10.2559 16.8984 10.4316C17.2109 10.6074 17.4453 10.8581 17.6016 11.1836C17.7643 11.5091 17.8457 11.8965 17.8457 12.3457C17.8457 12.7884 17.7676 13.1693 17.6113 13.4883C17.4551 13.8008 17.25 14.0938 16.9961 14.3672C16.7487 14.6341 16.4753 14.9206 16.1758 15.2266C15.7656 15.6497 15.4368 16.0273 15.1895 16.3594C14.9421 16.6914 14.763 17.0592 14.6523 17.4629C14.5482 17.86 14.4928 18.3711 14.4863 18.9961ZM14.6816 21.3496C14.4993 21.5514 14.4082 21.7988 14.4082 22.0918C14.4082 22.3717 14.4993 22.6126 14.6816 22.8145C14.8639 23.0163 15.1276 23.1172 15.4727 23.1172C15.8242 23.1172 16.0911 23.0163 16.2734 22.8145C16.4557 22.6126 16.5469 22.3717 16.5469 22.0918C16.5469 21.7988 16.4557 21.5514 16.2734 21.3496C16.0911 21.1478 15.8242 21.0469 15.4727 21.0469C15.1276 21.0469 14.8639 21.1478 14.6816 21.3496Z" fill="#e8d95f"/>
</svg>
