<svg width="32" height="32" viewBox="0 0 32 32" fill="none" xmlns="http://www.w3.org/2000/svg">
<path fill-rule="evenodd" clip-rule="evenodd" d="M16 29C23.1797 29 29 23.1797 29 16C29 8.8203 23.1797 3 16 3C8.8203 3 3 8.8203 3 16C3 23.1797 8.8203 29 16 29ZM16 8C17.1046 8 18 8.89543 18 10V18.1505C18 19.255 17.1046 20.1505 16 20.1505C14.8954 20.1505 14 19.255 14 18.1505V10C14 8.89543 14.8954 8 16 8ZM16.4812 21.9624C17.32 21.9624 18 22.6424 18 23.4812C18 24.32 17.32 25 16.4812 25H15.5188C14.68 25 14 24.32 14 23.4812C14 22.6424 14.68 21.9624 15.5188 21.9624H16.4812Z" fill="white"/>
</svg>
