<svg width="30" height="30" viewBox="0 0 30 30" fill="none" xmlns="http://www.w3.org/2000/svg">
<path fill-rule="evenodd" clip-rule="evenodd" d="M17.2768 11.8663C18.8271 11.0738 19.8884 9.46108 19.8884 7.60045C19.8884 4.95614 17.7448 2.8125 15.1004 2.8125C12.4561 2.8125 10.3125 4.95614 10.3125 7.60045C10.3125 9.46108 11.3738 11.0738 12.9241 11.8663V25.2766L15.1004 27.1875L17.2768 25.2766L17.2768 22.8348L19.8884 20.4606L17.2768 18.4821V17.6116L19.8884 15.2374L17.2768 13.2589L17.2768 11.8663ZM17.2768 6.29464C17.2768 7.25621 16.4973 8.03571 15.5357 8.03571C14.5741 8.03571 13.7946 7.25621 13.7946 6.29464C13.7946 5.33308 14.5741 4.55357 15.5357 4.55357C16.4973 4.55357 17.2768 5.33308 17.2768 6.29464Z" fill="white"/>
</svg>
