<svg width="417" height="181" viewBox="0 0 417 181" fill="none" xmlns="http://www.w3.org/2000/svg">
<rect width="417" height="181" fill="url(#paint0_linear_914_652067)"/>
<path d="M23.52 44.24C22.704 44.24 21.96 44.112 21.288 43.856C20.616 43.584 20.08 43.16 19.68 42.584C19.296 41.992 19.104 41.224 19.104 40.28C19.104 39.016 19.528 38.032 20.376 37.328C21.224 36.624 22.48 36.272 24.144 36.272H28.104V35.456C28.104 34.512 27.864 33.856 27.384 33.488C26.904 33.104 26.024 32.912 24.744 32.912C24.008 32.912 23.288 32.96 22.584 33.056C21.88 33.152 21.192 33.312 20.52 33.536V31.52C21.144 31.312 21.872 31.144 22.704 31.016C23.536 30.872 24.368 30.8 25.2 30.8C25.616 30.8 26.008 30.824 26.376 30.872C26.76 30.904 27.112 30.96 27.432 31.04H31.776L31.632 33.08H30.12C30.344 33.432 30.496 33.832 30.576 34.28C30.656 34.712 30.696 35.184 30.696 35.696V44H28.104V38.288H24.288C23.408 38.288 22.736 38.44 22.272 38.744C21.824 39.032 21.6 39.544 21.6 40.28C21.6 40.984 21.8 41.472 22.2 41.744C22.616 42.016 23.288 42.152 24.216 42.152C24.504 42.152 24.792 42.136 25.08 42.104C25.384 42.072 25.64 42.024 25.848 41.96V43.952C25.56 44.032 25.216 44.096 24.816 44.144C24.416 44.208 23.984 44.24 23.52 44.24ZM28.0277 29.048V25.112H30.6437V29.048H28.0277ZM37.353 44.24C35.865 44.24 34.569 44 33.465 43.52V41.456C33.945 41.664 34.465 41.832 35.025 41.96C35.601 42.088 36.169 42.152 36.729 42.152C37.817 42.152 38.681 42 39.321 41.696C39.961 41.392 40.417 40.904 40.689 40.232C40.977 39.544 41.121 38.64 41.121 37.52C41.121 35.856 40.777 34.672 40.089 33.968C39.417 33.264 38.289 32.912 36.705 32.912C36.129 32.912 35.569 32.976 35.025 33.104C34.481 33.216 33.961 33.384 33.465 33.608V31.52C34.009 31.296 34.593 31.12 35.217 30.992C35.857 30.864 36.545 30.8 37.281 30.8C39.425 30.8 41.017 31.376 42.057 32.528C43.113 33.664 43.641 35.328 43.641 37.52C43.641 39.696 43.137 41.36 42.129 42.512C41.137 43.664 39.545 44.24 37.353 44.24ZM50.4827 44.24C49.0907 44.24 48.0027 43.832 47.2187 43.016C46.4507 42.2 46.0667 41.04 46.0667 39.536V31.04H48.6827V39.416C48.6827 40.392 48.8987 41.096 49.3307 41.528C49.7627 41.944 50.4347 42.152 51.3467 42.152C52.0507 42.152 52.7227 42.008 53.3627 41.72C54.0027 41.416 54.5307 41.04 54.9467 40.592V31.04H57.5387V44H55.1627L55.0427 42.584C54.4507 43.08 53.7787 43.48 53.0267 43.784C52.2907 44.088 51.4427 44.24 50.4827 44.24ZM64.6059 44.24C63.7899 44.24 63.0459 44.112 62.3739 43.856C61.7179 43.584 61.1899 43.16 60.7899 42.584C60.3899 41.992 60.1899 41.224 60.1899 40.28C60.1899 39.016 60.6139 38.032 61.4619 37.328C62.3259 36.624 63.5819 36.272 65.2299 36.272H69.1899V35.456C69.1899 34.512 68.9499 33.856 68.4699 33.488C68.0059 33.104 67.1339 32.912 65.8539 32.912C65.1019 32.912 64.3739 32.96 63.6699 33.056C62.9819 33.152 62.3019 33.312 61.6299 33.536V31.52C62.2539 31.312 62.9739 31.144 63.7899 31.016C64.6219 30.872 65.4539 30.8 66.2859 30.8C68.1739 30.8 69.5659 31.2 70.4619 32C71.3579 32.784 71.8059 34.016 71.8059 35.696V44H69.1899V38.288H65.3979C64.5019 38.288 63.8219 38.44 63.3579 38.744C62.9099 39.032 62.6859 39.544 62.6859 40.28C62.6859 40.984 62.8859 41.472 63.2859 41.744C63.7019 42.016 64.3739 42.152 65.3019 42.152C65.9419 42.152 66.4939 42.088 66.9579 41.96V43.952C66.6539 44.032 66.3019 44.096 65.9019 44.144C65.5019 44.208 65.0699 44.24 64.6059 44.24ZM79.6719 44.24C78.6639 44.24 77.7599 44.016 76.9599 43.568C76.1599 43.12 75.5279 42.416 75.0639 41.456C74.5999 40.48 74.3679 39.232 74.3679 37.712C74.3679 35.552 74.9199 33.864 76.0239 32.648C77.1279 31.416 78.7839 30.8 80.9919 30.8C82.4799 30.8 83.6799 31.056 84.5919 31.568C85.5039 32.064 86.1679 32.712 86.5839 33.512C87.0159 34.312 87.2319 35.168 87.2319 36.08V44H84.6159V36.2C84.6159 35.56 84.5039 34.992 84.2799 34.496C84.0559 34 83.6719 33.616 83.1279 33.344C82.5999 33.056 81.8719 32.912 80.9439 32.912C79.5359 32.912 78.5039 33.32 77.8479 34.136C77.2079 34.952 76.8879 36.144 76.8879 37.712C76.8879 39.36 77.1679 40.512 77.7279 41.168C78.2879 41.824 79.0879 42.152 80.1279 42.152C80.4319 42.152 80.7279 42.136 81.0159 42.104C81.3199 42.072 81.5759 42.024 81.7839 41.96V43.952C81.5119 44.048 81.2079 44.12 80.8719 44.168C80.5359 44.216 80.1359 44.24 79.6719 44.24ZM97.8171 44V30.848L95.3211 31.28V29.096L100.409 28.304V44H97.8171ZM109.777 44.432C108.145 44.432 106.833 44.12 105.841 43.496C104.849 42.856 104.121 41.944 103.657 40.76C103.209 39.56 102.985 38.128 102.985 36.464C102.985 34.736 103.201 33.264 103.633 32.048C104.081 30.832 104.801 29.904 105.793 29.264C106.785 28.624 108.113 28.304 109.777 28.304C111.441 28.304 112.761 28.624 113.737 29.264C114.729 29.904 115.441 30.832 115.873 32.048C116.321 33.264 116.545 34.736 116.545 36.464C116.545 38.128 116.321 39.56 115.873 40.76C115.425 41.944 114.705 42.856 113.713 43.496C112.721 44.12 111.409 44.432 109.777 44.432ZM109.777 42.2C111.313 42.2 112.385 41.696 112.993 40.688C113.601 39.664 113.905 38.256 113.905 36.464C113.905 34.56 113.609 33.096 113.017 32.072C112.425 31.048 111.345 30.536 109.777 30.536C108.209 30.536 107.121 31.048 106.513 32.072C105.921 33.096 105.625 34.56 105.625 36.464C105.625 38.256 105.929 39.664 106.537 40.688C107.145 41.696 108.225 42.2 109.777 42.2ZM122.026 35.36C120.89 35.36 120.034 35.048 119.458 34.424C118.898 33.784 118.618 32.976 118.618 32C118.618 30.864 118.898 29.968 119.458 29.312C120.034 28.64 120.89 28.304 122.026 28.304C123.162 28.304 124.01 28.64 124.57 29.312C125.13 29.968 125.41 30.864 125.41 32C125.41 32.976 125.13 33.784 124.57 34.424C124.01 35.048 123.162 35.36 122.026 35.36ZM120.97 44L129.154 28.544H131.602L123.418 44H120.97ZM122.026 33.776C122.65 33.776 123.098 33.616 123.37 33.296C123.642 32.976 123.778 32.528 123.778 31.952C123.778 31.248 123.634 30.736 123.346 30.416C123.074 30.08 122.634 29.912 122.026 29.912C121.418 29.912 120.97 30.08 120.682 30.416C120.41 30.736 120.274 31.248 120.274 31.952C120.274 32.528 120.41 32.976 120.682 33.296C120.954 33.616 121.402 33.776 122.026 33.776ZM130.618 44.24C129.482 44.24 128.626 43.928 128.05 43.304C127.49 42.664 127.21 41.856 127.21 40.88C127.21 39.744 127.49 38.848 128.05 38.192C128.626 37.52 129.482 37.184 130.618 37.184C131.754 37.184 132.602 37.52 133.162 38.192C133.722 38.848 134.002 39.744 134.002 40.88C134.002 41.856 133.722 42.664 133.162 43.304C132.602 43.928 131.754 44.24 130.618 44.24ZM130.618 42.656C131.242 42.656 131.69 42.496 131.962 42.176C132.234 41.856 132.37 41.408 132.37 40.832C132.37 40.128 132.226 39.616 131.938 39.296C131.666 38.96 131.226 38.792 130.618 38.792C130.01 38.792 129.562 38.96 129.274 39.296C129.002 39.616 128.866 40.128 128.866 40.832C128.866 41.408 129.002 41.856 129.274 42.176C129.546 42.496 129.994 42.656 130.618 42.656Z" fill="black"/>
<path d="M20.72 72C20.1333 72 19.7067 71.856 19.44 71.568C19.1733 71.28 19.04 70.8693 19.04 70.336V63.36H20.768V69.904C20.768 70.384 21.0027 70.624 21.472 70.624H22.208V72H20.72ZM28.6183 72.16C27.9676 72.16 27.3969 72.0587 26.9062 71.856C26.4263 71.6533 25.9889 71.3867 25.5943 71.056L25.4983 72H23.9143V63.36H25.6583V69.728C25.9356 70.0267 26.2823 70.2773 26.6983 70.48C27.1143 70.672 27.5623 70.768 28.0423 70.768C28.6396 70.768 29.0876 70.6293 29.3863 70.352C29.6849 70.064 29.8343 69.5947 29.8343 68.944V63.36H31.5623V69.024C31.5623 70.0267 31.3009 70.8 30.7783 71.344C30.2556 71.888 29.5356 72.16 28.6183 72.16ZM24.8977 62.048L24.9777 60.832H28.0817V59.504H29.3457V60.832H30.3057V59.504H31.5697V62.048H24.8977ZM30.1297 58.768V56.544H31.5697V58.768H30.1297ZM36.8338 72.16C36.1511 72.16 35.5058 72.096 34.8978 71.968C34.3004 71.84 33.7991 71.6907 33.3938 71.52V67.072H36.8177L36.8978 68.4H35.0738V70.496C35.3191 70.5813 35.5964 70.6507 35.9058 70.704C36.2258 70.7467 36.5351 70.768 36.8338 70.768C37.7831 70.768 38.4498 70.544 38.8338 70.096C39.2284 69.6373 39.4258 68.8427 39.4258 67.712C39.4258 66.9227 39.3298 66.304 39.1378 65.856C38.9458 65.3973 38.6258 65.0773 38.1778 64.896C37.7404 64.704 37.1431 64.608 36.3858 64.608C35.9271 64.608 35.4471 64.64 34.9457 64.704C34.4444 64.768 33.9698 64.8747 33.5218 65.024V63.68C33.9698 63.5307 34.4818 63.4133 35.0578 63.328C35.6444 63.2427 36.2311 63.2 36.8177 63.2C38.3324 63.2 39.4258 63.584 40.0978 64.352C40.7698 65.1093 41.1058 66.2293 41.1058 67.712C41.1058 69.1627 40.7698 70.2667 40.0978 71.024C39.4258 71.7813 38.3378 72.16 36.8338 72.16ZM46.3569 72.16C45.1515 72.16 44.2342 71.888 43.6049 71.344C42.9755 70.8 42.6609 70.032 42.6609 69.04V68.4C42.6609 68.0587 42.7515 67.7227 42.9329 67.392C43.1249 67.0613 43.3382 66.752 43.5729 66.464C43.8182 66.1653 44.0315 65.8933 44.2129 65.648C44.4049 65.392 44.5009 65.1733 44.5009 64.992C44.5009 64.7573 44.3942 64.64 44.1809 64.64C43.9889 64.64 43.8129 64.72 43.6529 64.88V65.52H42.4689V63.36H43.6849V63.808C43.8342 63.6907 43.9995 63.5893 44.1809 63.504C44.3729 63.408 44.6129 63.36 44.9009 63.36C45.7115 63.36 46.1169 63.7707 46.1169 64.592C46.1169 64.9547 46.0315 65.296 45.8609 65.616C45.6902 65.9253 45.4875 66.2293 45.2529 66.528C45.0289 66.8267 44.8315 67.1307 44.6609 67.44C44.4902 67.7387 44.4049 68.0587 44.4049 68.4V69.072C44.4049 69.6587 44.5755 70.0907 44.9169 70.368C45.2582 70.6347 45.7382 70.768 46.3569 70.768C46.9862 70.768 47.4769 70.6293 47.8289 70.352C48.1809 70.0747 48.3569 69.632 48.3569 69.024V67.968C48.3569 67.4667 48.2715 67.12 48.1009 66.928C47.9409 66.7253 47.6422 66.624 47.2049 66.624H46.7569L46.8369 65.36H47.1569C47.6049 65.36 47.9142 65.2533 48.0849 65.04C48.2662 64.816 48.3569 64.4747 48.3569 64.016V63.2H50.0849V63.984C50.0849 64.4853 50.0102 64.9013 49.8609 65.232C49.7115 65.552 49.4075 65.8027 48.9489 65.984C49.4289 66.1867 49.7382 66.4533 49.8769 66.784C50.0155 67.1147 50.0849 67.5253 50.0849 68.016V68.912C50.0849 69.936 49.7542 70.736 49.0929 71.312C48.4422 71.8773 47.5302 72.16 46.3569 72.16ZM43.4134 62.048L43.4934 60.832H46.5974V59.504H47.8614V60.832H48.8214V59.504H50.0854V62.048H43.4134ZM47.6534 58.672V57.424H46.6614V56.304H48.7894V57.552H51.2534L51.1894 58.672H47.6534ZM55.3494 72.16C54.6667 72.16 54.0214 72.096 53.4134 71.968C52.816 71.84 52.3147 71.6907 51.9094 71.52V67.072H55.3334L55.4134 68.4H53.5894V70.496C53.8347 70.5813 54.112 70.6507 54.4214 70.704C54.7414 70.7467 55.0507 70.768 55.3494 70.768C56.2987 70.768 56.9654 70.544 57.3494 70.096C57.744 69.6373 57.9414 68.8427 57.9414 67.712C57.9414 66.9227 57.8454 66.304 57.6534 65.856C57.4614 65.3973 57.1414 65.0773 56.6934 64.896C56.256 64.704 55.6587 64.608 54.9014 64.608C54.4427 64.608 53.9627 64.64 53.4614 64.704C52.96 64.768 52.4854 64.8747 52.0374 65.024V63.68C52.4854 63.5307 52.9974 63.4133 53.5734 63.328C54.16 63.2427 54.7467 63.2 55.3334 63.2C56.848 63.2 57.9414 63.584 58.6134 64.352C59.2854 65.1093 59.6214 66.2293 59.6214 67.712C59.6214 69.1627 59.2854 70.2667 58.6134 71.024C57.9414 71.7813 56.8534 72.16 55.3494 72.16ZM64.5525 72.16C63.8698 72.16 63.2245 72.096 62.6165 71.968C62.0192 71.84 61.5178 71.6907 61.1125 71.52V67.072H64.5365L64.6165 68.4H62.7925V70.496C63.0378 70.5813 63.3152 70.6507 63.6245 70.704C63.9445 70.7467 64.2538 70.768 64.5525 70.768C65.5018 70.768 66.1685 70.544 66.5525 70.096C66.9472 69.6373 67.1445 68.8427 67.1445 67.712C67.1445 66.9227 67.0485 66.304 66.8565 65.856C66.6645 65.3973 66.3445 65.0773 65.8965 64.896C65.4592 64.704 64.8618 64.608 64.1045 64.608C63.6458 64.608 63.1658 64.64 62.6645 64.704C62.1632 64.768 61.6885 64.8747 61.2405 65.024V63.68C61.6885 63.5307 62.2005 63.4133 62.7765 63.328C63.3632 63.2427 63.9498 63.2 64.5365 63.2C66.0512 63.2 67.1445 63.584 67.8165 64.352C68.4885 65.1093 68.8245 66.2293 68.8245 67.712C68.8245 69.1627 68.4885 70.2667 67.8165 71.024C67.1445 71.7813 66.0565 72.16 64.5525 72.16ZM70.2036 66.704V64.624H71.6916V65.408H74.0436L73.9796 66.704H70.2036ZM70.2036 71.056V68.976H71.6916V69.776H74.0436L73.9796 71.056H70.2036ZM77.6471 72C77.0605 72 76.6338 71.856 76.3671 71.568C76.1005 71.28 75.9671 70.8693 75.9671 70.336V63.216C75.9671 62.5867 76.0791 62.064 76.3031 61.648C76.5271 61.232 76.8205 60.9067 77.1831 60.672H74.5111V59.296H79.2951V60.608C78.7085 60.8427 78.2925 61.1893 78.0471 61.648C77.8125 62.096 77.6951 62.704 77.6951 63.472V69.904C77.6951 70.1813 77.7378 70.3733 77.8231 70.48C77.9191 70.576 78.1111 70.624 78.3991 70.624H79.1351V72H77.6471ZM80.5236 72V63.36H82.2676V66.08H84.7636C85.393 66.08 85.825 65.9467 86.0596 65.68C86.305 65.4027 86.4276 65.0027 86.4276 64.48V63.36H88.1556V64.432C88.1556 64.9653 88.0596 65.4347 87.8676 65.84C87.6863 66.2453 87.3503 66.5387 86.8596 66.72C87.3503 66.8907 87.6756 67.1627 87.8356 67.536C87.9956 67.8987 88.0756 68.3253 88.0756 68.816V72H86.3476V69.024C86.3476 68.4053 86.2303 67.984 85.9956 67.76C85.761 67.5253 85.329 67.408 84.6996 67.408H82.2676V72H80.5236ZM92.8519 72.16C92.3079 72.16 91.8119 72.0747 91.3639 71.904C90.9265 71.7227 90.5745 71.44 90.3079 71.056C90.0412 70.6613 89.9079 70.1493 89.9079 69.52C89.9079 68.6773 90.1905 68.0213 90.7559 67.552C91.3319 67.0827 92.1692 66.848 93.2679 66.848H95.9079V66.304C95.9079 65.6747 95.7479 65.2373 95.4279 64.992C95.1185 64.736 94.5372 64.608 93.6839 64.608C93.1825 64.608 92.6972 64.64 92.2279 64.704C91.7692 64.768 91.3159 64.8747 90.8679 65.024V63.68C91.2839 63.5413 91.7639 63.4293 92.3079 63.344C92.8625 63.248 93.4172 63.2 93.9719 63.2C95.2305 63.2 96.1585 63.4667 96.7559 64C97.3532 64.5227 97.6519 65.344 97.6519 66.464V72H95.9079V68.192H93.3799C92.7825 68.192 92.3292 68.2933 92.0199 68.496C91.7212 68.688 91.5719 69.0293 91.5719 69.52C91.5719 69.9893 91.7052 70.3147 91.9719 70.496C92.2492 70.6773 92.6972 70.768 93.3159 70.768C93.7425 70.768 94.1105 70.7253 94.4199 70.64V71.968C94.2172 72.0213 93.9825 72.064 93.7159 72.096C93.4492 72.1387 93.1612 72.16 92.8519 72.16ZM95.9039 62.032V59.408H97.6479V62.032H95.9039ZM101.152 72C100.565 72 100.139 71.856 99.8719 71.568C99.6052 71.28 99.4719 70.8693 99.4719 70.336V65.04C99.4719 64.5067 99.5679 64.0587 99.7599 63.696C99.9519 63.3333 100.171 63.0293 100.416 62.784C100.661 62.528 100.88 62.2987 101.072 62.096C101.264 61.8827 101.36 61.6587 101.36 61.424C101.36 61.1147 101.269 60.9067 101.088 60.8C100.917 60.6933 100.656 60.64 100.304 60.64C99.7279 60.64 99.1465 60.8 98.5599 61.12V59.84C98.8799 59.648 99.2479 59.504 99.6639 59.408C100.091 59.3013 100.501 59.248 100.896 59.248C101.653 59.248 102.219 59.408 102.592 59.728C102.965 60.048 103.152 60.5013 103.152 61.088C103.152 61.4293 103.083 61.728 102.944 61.984C102.816 62.2293 102.656 62.4587 102.464 62.672C102.272 62.8853 102.08 63.104 101.888 63.328C101.696 63.552 101.531 63.8027 101.392 64.08C101.264 64.3573 101.2 64.6933 101.2 65.088V69.904C101.2 70.1813 101.243 70.3733 101.328 70.48C101.424 70.576 101.616 70.624 101.904 70.624H102.64V72H101.152ZM107.327 72.16C106.399 72.16 105.674 71.888 105.151 71.344C104.639 70.8 104.383 70.0267 104.383 69.024V63.36H106.127V68.944C106.127 69.5947 106.271 70.064 106.559 70.352C106.847 70.6293 107.295 70.768 107.903 70.768C108.372 70.768 108.82 70.672 109.247 70.48C109.674 70.2773 110.026 70.0267 110.303 69.728V63.36H112.031V72H110.447L110.367 71.056C109.972 71.3867 109.524 71.6533 109.023 71.856C108.532 72.0587 107.967 72.16 107.327 72.16ZM114.215 72V68.88C114.215 68.4107 114.305 68 114.487 67.648C114.668 67.2853 114.999 67.0347 115.479 66.896L113.751 66.464V64.672C114.177 64.2987 114.737 63.9627 115.431 63.664C116.135 63.3547 116.956 63.2 117.895 63.2C119.164 63.2 120.14 63.4667 120.823 64C121.505 64.5227 121.847 65.4027 121.847 66.64V72H120.103V66.592C120.103 65.856 119.927 65.344 119.575 65.056C119.233 64.7573 118.652 64.608 117.831 64.608C117.297 64.608 116.801 64.6827 116.343 64.832C115.884 64.9813 115.521 65.1787 115.255 65.424V65.712L117.079 66.176V67.328C116.663 67.4347 116.369 67.6053 116.199 67.84C116.028 68.0747 115.943 68.4267 115.943 68.896V72H114.215ZM126.555 72.16C126.011 72.16 125.515 72.0747 125.067 71.904C124.63 71.7227 124.278 71.44 124.011 71.056C123.744 70.6613 123.611 70.1493 123.611 69.52C123.611 68.6773 123.894 68.0213 124.459 67.552C125.035 67.0827 125.872 66.848 126.971 66.848H129.611V66.304C129.611 65.6747 129.451 65.2373 129.131 64.992C128.822 64.736 128.24 64.608 127.387 64.608C126.886 64.608 126.4 64.64 125.931 64.704C125.472 64.768 125.019 64.8747 124.571 65.024V63.68C124.987 63.5413 125.467 63.4293 126.011 63.344C126.566 63.248 127.12 63.2 127.675 63.2C128.934 63.2 129.862 63.4667 130.459 64C131.056 64.5227 131.355 65.344 131.355 66.464V72H129.611V68.192H127.083C126.486 68.192 126.032 68.2933 125.723 68.496C125.424 68.688 125.275 69.0293 125.275 69.52C125.275 69.9893 125.408 70.3147 125.675 70.496C125.952 70.6773 126.4 70.768 127.019 70.768C127.446 70.768 127.814 70.7253 128.123 70.64V71.968C127.92 72.0213 127.686 72.064 127.419 72.096C127.152 72.1387 126.864 72.16 126.555 72.16ZM129.863 76.032V74.048H128.855L128.935 72.912H131.351V76.032H129.863ZM129.607 62.032V59.408H131.351V62.032H129.607ZM138.087 72.16C137.436 72.16 136.866 72.0587 136.375 71.856C135.895 71.6533 135.458 71.3867 135.063 71.056L134.967 72H133.383V63.36H135.127V69.728C135.404 70.0267 135.751 70.2773 136.167 70.48C136.583 70.672 137.031 70.768 137.511 70.768C138.108 70.768 138.556 70.6293 138.855 70.352C139.154 70.064 139.303 69.5947 139.303 68.944V63.36H141.031V69.024C141.031 70.0267 140.77 70.8 140.247 71.344C139.724 71.888 139.004 72.16 138.087 72.16ZM145.743 72.16C145.199 72.16 144.703 72.0747 144.255 71.904C143.807 71.7227 143.449 71.44 143.183 71.056C142.927 70.6613 142.799 70.1493 142.799 69.52C142.799 68.6773 143.081 68.0213 143.647 67.552C144.212 67.0827 145.049 66.848 146.159 66.848H148.799V66.304C148.799 65.6747 148.639 65.2373 148.319 64.992C147.999 64.736 147.412 64.608 146.559 64.608C146.068 64.608 145.588 64.64 145.119 64.704C144.649 64.768 144.191 64.8747 143.743 65.024V63.68C144.159 63.5413 144.644 63.4293 145.199 63.344C145.753 63.248 146.308 63.2 146.863 63.2C147.14 63.2 147.401 63.216 147.647 63.248C147.903 63.2693 148.137 63.3067 148.351 63.36H151.247L151.151 64.72H150.142C150.292 64.9547 150.393 65.2213 150.447 65.52C150.5 65.808 150.527 66.1227 150.527 66.464V72H148.799V68.192H146.255C145.668 68.192 145.22 68.2933 144.911 68.496C144.612 68.688 144.463 69.0293 144.463 69.52C144.463 69.9893 144.596 70.3147 144.863 70.496C145.14 70.6773 145.588 70.768 146.207 70.768C146.399 70.768 146.591 70.7573 146.783 70.736C146.985 70.7147 147.156 70.6827 147.295 70.64V71.968C147.103 72.0213 146.873 72.064 146.607 72.096C146.34 72.1387 146.052 72.16 145.743 72.16ZM143.835 62.048L143.915 60.832H150.507V62.048H143.835ZM155.765 72.16C154.837 72.16 154.111 71.888 153.589 71.344C153.077 70.8 152.821 70.0267 152.821 69.024V63.36H154.565V68.944C154.565 69.5947 154.709 70.064 154.997 70.352C155.285 70.6293 155.733 70.768 156.341 70.768C156.81 70.768 157.258 70.672 157.685 70.48C158.111 70.2773 158.463 70.0267 158.741 69.728V63.36H160.469V72H158.885L158.805 71.056C158.41 71.3867 157.962 71.6533 157.461 71.856C156.97 72.0587 156.405 72.16 155.765 72.16ZM162.508 72V66.528C162.508 65.4827 162.823 64.6667 163.452 64.08C164.081 63.4933 165.073 63.2 166.428 63.2C167.793 63.2 168.78 63.4933 169.388 64.08C170.007 64.6667 170.316 65.4827 170.316 66.528V72H168.572V66.368C168.572 65.76 168.385 65.3173 168.012 65.04C167.639 64.752 167.111 64.608 166.428 64.608C165.713 64.608 165.169 64.752 164.796 65.04C164.433 65.3173 164.252 65.76 164.252 66.368V68.144C164.721 67.76 165.281 67.568 165.932 67.568H166.972L167.036 68.96H165.884C165.233 68.96 164.689 69.1413 164.252 69.504V72H162.508ZM166.656 62.048V60.576H165.392V59.376H167.856V60.832H171.312L171.248 62.048H166.656ZM175.616 72V66.56C175.616 66.1227 175.568 65.76 175.472 65.472C175.376 65.184 175.194 64.9707 174.928 64.832C174.661 64.6827 174.266 64.608 173.744 64.608C173.402 64.608 173.029 64.6453 172.624 64.72C172.229 64.7947 171.872 64.896 171.552 65.024V63.68C171.872 63.5413 172.256 63.4293 172.704 63.344C173.162 63.248 173.621 63.2 174.08 63.2C175.232 63.2 176.064 63.4507 176.576 63.952C177.098 64.4533 177.36 65.248 177.36 66.336V72H175.616ZM182.951 72.16C181.735 72.16 180.812 71.8773 180.183 71.312C179.553 70.7467 179.239 69.952 179.239 68.928V68.08C179.239 67.7387 179.308 67.424 179.447 67.136C179.596 66.848 179.761 66.5867 179.943 66.352C180.135 66.1067 180.3 65.8827 180.439 65.68C180.588 65.4667 180.663 65.2693 180.663 65.088C180.663 64.9173 180.625 64.8053 180.551 64.752C180.476 64.6987 180.343 64.672 180.151 64.672H179.047L179.191 63.36H181.207C182.017 63.36 182.423 63.7493 182.423 64.528C182.423 64.8907 182.348 65.216 182.199 65.504C182.06 65.792 181.889 66.0693 181.687 66.336C181.495 66.6027 181.324 66.88 181.175 67.168C181.036 67.4453 180.967 67.7547 180.967 68.096V69.072C180.967 69.6587 181.143 70.0907 181.495 70.368C181.847 70.6347 182.332 70.768 182.951 70.768C183.58 70.768 184.065 70.6293 184.407 70.352C184.748 70.0747 184.919 69.632 184.919 69.024V63.36H186.663V68.912C186.663 69.936 186.332 70.736 185.671 71.312C185.02 71.8773 184.113 72.16 182.951 72.16ZM191.928 72.16C191.245 72.16 190.6 72.096 189.992 71.968C189.394 71.84 188.893 71.6907 188.488 71.52V67.072H191.911L191.992 68.4H190.168V70.496C190.413 70.5813 190.69 70.6507 191 70.704C191.32 70.7467 191.629 70.768 191.928 70.768C192.877 70.768 193.544 70.544 193.928 70.096C194.322 69.6373 194.52 68.8427 194.52 67.712C194.52 66.9227 194.424 66.304 194.232 65.856C194.04 65.3973 193.72 65.0773 193.272 64.896C192.834 64.704 192.237 64.608 191.48 64.608C191.021 64.608 190.541 64.64 190.039 64.704C189.538 64.768 189.064 64.8747 188.616 65.024V63.68C189.064 63.5307 189.576 63.4133 190.152 63.328C190.738 63.2427 191.325 63.2 191.911 63.2C193.426 63.2 194.52 63.584 195.192 64.352C195.864 65.1093 196.2 66.2293 196.2 67.712C196.2 69.1627 195.864 70.2667 195.192 71.024C194.52 71.7813 193.432 72.16 191.928 72.16ZM201.291 72.16C201.045 72.16 200.773 72.144 200.475 72.112C200.176 72.08 199.915 72.0267 199.691 71.952L197.259 66.032H198.955L200.923 70.832C201.84 70.8747 202.507 70.6133 202.923 70.048C203.339 69.472 203.547 68.592 203.547 67.408C203.547 66.7147 203.483 66.1707 203.355 65.776C203.227 65.3707 203.008 65.088 202.699 64.928C202.4 64.7573 201.984 64.672 201.451 64.672H200.843V63.36H201.675C202.912 63.36 203.813 63.6907 204.379 64.352C204.944 65.0133 205.227 66.0267 205.227 67.392C205.227 68.5227 205.056 69.44 204.715 70.144C204.373 70.8373 203.904 71.3493 203.307 71.68C202.72 72 202.048 72.16 201.291 72.16ZM210.313 72L214.249 61.696H216.201L220.105 72H218.313L217.289 69.344H213.145L212.121 72H210.313ZM213.417 68H217.001L215.209 63.28L213.417 68ZM224.349 72.16C223.826 72.16 223.325 72.1227 222.845 72.048C222.375 71.9733 221.986 71.8827 221.677 71.776V70.304C222.039 70.4427 222.439 70.5493 222.877 70.624C223.314 70.6987 223.73 70.736 224.125 70.736C224.722 70.736 225.149 70.6827 225.405 70.576C225.661 70.4693 225.789 70.2613 225.789 69.952C225.789 69.728 225.709 69.552 225.549 69.424C225.399 69.296 225.17 69.1787 224.861 69.072C224.562 68.9653 224.178 68.8373 223.709 68.688C223.261 68.5387 222.871 68.3787 222.541 68.208C222.21 68.0267 221.954 67.7973 221.773 67.52C221.591 67.2427 221.501 66.88 221.501 66.432C221.501 65.7387 221.751 65.2053 222.253 64.832C222.754 64.448 223.559 64.256 224.669 64.256C225.106 64.256 225.522 64.288 225.917 64.352C226.311 64.416 226.647 64.496 226.925 64.592V66.048C226.626 65.9307 226.295 65.84 225.933 65.776C225.581 65.712 225.25 65.68 224.941 65.68C224.386 65.68 223.965 65.728 223.677 65.824C223.399 65.92 223.261 66.112 223.261 66.4C223.261 66.6987 223.405 66.912 223.693 67.04C223.991 67.1573 224.466 67.3227 225.117 67.536C225.714 67.7173 226.189 67.9093 226.541 68.112C226.893 68.3147 227.143 68.56 227.293 68.848C227.453 69.1253 227.533 69.488 227.533 69.936C227.533 70.6827 227.261 71.2427 226.717 71.616C226.173 71.9787 225.383 72.16 224.349 72.16ZM231.904 72.16C231.093 72.16 230.485 71.9467 230.08 71.52C229.685 71.0827 229.488 70.4907 229.488 69.744V65.776H228.368V64.416H229.488V62.672L231.216 62.144V64.416H233.232L233.12 65.776H231.216V69.648C231.216 70.0853 231.317 70.3947 231.52 70.576C231.723 70.7467 232.053 70.832 232.512 70.832C232.8 70.832 233.104 70.7787 233.424 70.672V71.904C233.008 72.0747 232.501 72.16 231.904 72.16ZM238.39 72.16C237.025 72.16 236.022 71.8187 235.382 71.136C234.753 70.4533 234.438 69.4773 234.438 68.208C234.438 66.9387 234.758 65.9627 235.398 65.28C236.038 64.5973 237.035 64.256 238.39 64.256C239.755 64.256 240.758 64.5973 241.398 65.28C242.038 65.9627 242.358 66.9387 242.358 68.208C242.358 69.4773 242.038 70.4533 241.398 71.136C240.769 71.8187 239.766 72.16 238.39 72.16ZM238.39 70.688C239.19 70.688 239.755 70.496 240.086 70.112C240.427 69.7173 240.598 69.0827 240.598 68.208C240.598 67.3333 240.427 66.704 240.086 66.32C239.755 65.936 239.19 65.744 238.39 65.744C237.601 65.744 237.035 65.936 236.694 66.32C236.363 66.704 236.198 67.3333 236.198 68.208C236.198 69.0827 236.363 69.7173 236.694 70.112C237.035 70.496 237.601 70.688 238.39 70.688ZM244.055 72V64.416H245.655L245.735 65.216C246.076 64.9493 246.482 64.7253 246.951 64.544C247.431 64.352 247.959 64.256 248.535 64.256C249.516 64.256 250.231 64.4853 250.679 64.944C251.127 65.4027 251.351 66.1173 251.351 67.088V72H249.623V67.168C249.623 66.5813 249.5 66.1707 249.255 65.936C249.02 65.7013 248.572 65.584 247.911 65.584C247.516 65.584 247.127 65.664 246.743 65.824C246.37 65.984 246.055 66.192 245.799 66.448V72H244.055ZM256.992 72V61.696H258.784L262.048 68.368L265.296 61.696H267.088V72H265.36V64.528L262.576 70.224H261.52L258.72 64.528V72H256.992ZM271.47 72.16C270.99 72.16 270.542 72.0747 270.126 71.904C269.72 71.7333 269.395 71.4773 269.15 71.136C268.904 70.784 268.782 70.352 268.782 69.84C268.782 69.1147 269.027 68.5333 269.518 68.096C270.019 67.648 270.787 67.424 271.822 67.424H274.254V67.088C274.254 66.7253 274.195 66.4373 274.078 66.224C273.971 66.0107 273.768 65.856 273.47 65.76C273.182 65.664 272.755 65.616 272.19 65.616C271.294 65.616 270.456 65.7493 269.678 66.016V64.72C270.019 64.5813 270.435 64.4693 270.926 64.384C271.416 64.2987 271.944 64.256 272.51 64.256C273.619 64.256 274.462 64.48 275.038 64.928C275.624 65.376 275.918 66.1067 275.918 67.12V72H274.43L274.318 71.232C274.008 71.5307 273.624 71.76 273.166 71.92C272.718 72.08 272.152 72.16 271.47 72.16ZM271.934 70.912C272.456 70.912 272.91 70.8267 273.294 70.656C273.688 70.4747 274.008 70.2347 274.254 69.936V68.608H271.854C271.342 68.608 270.968 68.7093 270.734 68.912C270.51 69.104 270.398 69.4027 270.398 69.808C270.398 70.2027 270.531 70.4853 270.798 70.656C271.064 70.8267 271.443 70.912 271.934 70.912ZM277.852 72V64.416H279.452L279.548 65.296C279.91 65.0613 280.342 64.848 280.844 64.656C281.345 64.464 281.841 64.3307 282.332 64.256V65.584C282.033 65.6373 281.708 65.7173 281.356 65.824C281.014 65.92 280.689 66.032 280.38 66.16C280.07 66.2773 279.809 66.4 279.596 66.528V72H277.852ZM286.498 72.16C285.687 72.16 285.079 71.9467 284.674 71.52C284.279 71.0827 284.082 70.4907 284.082 69.744V65.776H282.962V64.416H284.082V62.672L285.81 62.144V64.416H287.826L287.714 65.776H285.81V69.648C285.81 70.0853 285.911 70.3947 286.114 70.576C286.316 70.7467 286.647 70.832 287.106 70.832C287.394 70.832 287.698 70.7787 288.018 70.672V71.904C287.602 72.0747 287.095 72.16 286.498 72.16ZM289.992 62.832V61.392H291.896V62.832H289.992ZM290.136 72V65.744H288.984L289.144 64.416H291.88V72H290.136ZM293.914 72V64.416H295.514L295.594 65.216C295.936 64.9493 296.341 64.7253 296.81 64.544C297.29 64.352 297.818 64.256 298.394 64.256C299.376 64.256 300.09 64.4853 300.538 64.944C300.986 65.4027 301.21 66.1173 301.21 67.088V72H299.482V67.168C299.482 66.5813 299.36 66.1707 299.114 65.936C298.88 65.7013 298.432 65.584 297.77 65.584C297.376 65.584 296.986 65.664 296.602 65.824C296.229 65.984 295.914 66.192 295.658 66.448V72H293.914Z" fill="#333333"/>
<path fill-rule="evenodd" clip-rule="evenodd" d="M30 103C34.9706 103 39 98.9706 39 94C39 89.0294 34.9706 85 30 85C25.0294 85 21 89.0294 21 94C21 98.9706 25.0294 103 30 103ZM30 100.75C33.7279 100.75 36.75 97.7279 36.75 94C36.75 90.2721 33.7279 87.25 30 87.25C26.2721 87.25 23.25 90.2721 23.25 94C23.25 97.7279 26.2721 100.75 30 100.75ZM28.5 90.25C28.5 89.8358 28.8358 89.5 29.25 89.5C29.6642 89.5 30 89.8358 30 90.25V95.2598L31.998 94.3194C32.3728 94.143 32.8196 94.3038 32.996 94.6786C33.1724 95.0534 33.0115 95.5002 32.6368 95.6766L29.8174 97.0036C29.6003 97.1058 29.3591 97.0948 29.1602 96.9947C28.7883 96.9503 28.5 96.6338 28.5 96.25V90.25Z" fill="white"/>
<path d="M53.48 100C52.8933 100 52.4667 99.856 52.2 99.568C51.9333 99.28 51.8 98.8693 51.8 98.336V93.04C51.8 92.5067 51.896 92.0587 52.088 91.696C52.28 91.3333 52.4987 91.0293 52.744 90.784C52.9893 90.528 53.208 90.2987 53.4 90.096C53.592 89.8827 53.688 89.6587 53.688 89.424C53.688 89.1147 53.5973 88.9067 53.416 88.8C53.2453 88.6933 52.984 88.64 52.632 88.64C52.056 88.64 51.4747 88.8 50.888 89.12V87.84C51.208 87.648 51.576 87.504 51.992 87.408C52.4187 87.3013 52.8293 87.248 53.224 87.248C53.9813 87.248 54.5467 87.408 54.92 87.728C55.2933 88.048 55.48 88.5013 55.48 89.088C55.48 89.4293 55.4107 89.728 55.272 89.984C55.144 90.2293 54.984 90.4587 54.792 90.672C54.6 90.8853 54.408 91.104 54.216 91.328C54.024 91.552 53.8587 91.8027 53.72 92.08C53.592 92.3573 53.528 92.6933 53.528 93.088V97.904C53.528 98.1813 53.5707 98.3733 53.656 98.48C53.752 98.576 53.944 98.624 54.232 98.624H54.968V100H53.48ZM60.2631 100.16C59.0471 100.16 58.1245 99.8773 57.4951 99.312C56.8765 98.7467 56.5671 97.952 56.5671 96.928V96.08C56.5671 95.7387 56.6365 95.424 56.7751 95.136C56.9245 94.848 57.0898 94.5867 57.2711 94.352C57.4631 94.1067 57.6285 93.8827 57.7671 93.68C57.9165 93.4667 57.9911 93.2693 57.9911 93.088C57.9911 92.9173 57.9538 92.8053 57.8791 92.752C57.8045 92.6987 57.6711 92.672 57.4791 92.672H56.3751L56.5191 91.36H58.5351C59.3458 91.36 59.7511 91.7493 59.7511 92.528C59.7511 92.8907 59.6765 93.216 59.5271 93.504C59.3885 93.792 59.2178 94.0693 59.0151 94.336C58.8231 94.6027 58.6525 94.88 58.5031 95.168C58.3645 95.4453 58.2951 95.7547 58.2951 96.096V97.072C58.2951 97.6587 58.4658 98.0907 58.8071 98.368C59.1591 98.6347 59.6445 98.768 60.2631 98.768C60.8925 98.768 61.3778 98.6293 61.7191 98.352C62.0711 98.0747 62.2471 97.632 62.2471 97.024V95.968C62.2471 95.4667 62.1671 95.12 62.0071 94.928C61.8471 94.7253 61.5485 94.624 61.1111 94.624H60.6631L60.7431 93.36H61.0631C61.5111 93.36 61.8205 93.2533 61.9911 93.04C62.1618 92.816 62.2471 92.4747 62.2471 92.016V91.2H63.9911V91.984C63.9911 92.4853 63.9165 92.9013 63.7671 93.232C63.6178 93.552 63.3085 93.8027 62.8391 93.984C63.3298 94.1867 63.6445 94.4533 63.7831 94.784C63.9218 95.1147 63.9911 95.5253 63.9911 96.016V96.912C63.9911 97.936 63.6605 98.736 62.9991 99.312C62.3378 99.8773 61.4258 100.16 60.2631 100.16ZM60.3276 90.048V88.576H59.0636V87.376H61.5276V88.832H64.9836L64.9196 90.048H60.3276ZM67.9596 100C67.373 100 66.9463 99.856 66.6796 99.568C66.413 99.28 66.2796 98.8693 66.2796 98.336V91.216C66.2796 90.5867 66.3916 90.064 66.6156 89.648C66.8396 89.232 67.133 88.9067 67.4956 88.672H64.8236V87.296H69.6076V88.608C69.021 88.8427 68.605 89.1893 68.3596 89.648C68.125 90.096 68.0076 90.704 68.0076 91.472V97.904C68.0076 98.1813 68.0503 98.3733 68.1356 98.48C68.2316 98.576 68.4236 98.624 68.7116 98.624H69.4476V100H67.9596ZM74.0521 100.16C73.3801 100.16 72.7775 100.011 72.2441 99.712C71.7108 99.4133 71.2895 98.944 70.9801 98.304C70.6708 97.6533 70.5161 96.8213 70.5161 95.808C70.5161 94.368 70.8841 93.2427 71.6201 92.432C72.3561 91.6107 73.4601 91.2 74.9321 91.2C75.9241 91.2 76.7241 91.3707 77.3321 91.712C77.9401 92.0427 78.3828 92.4747 78.6601 93.008C78.9481 93.5413 79.0921 94.112 79.0921 94.72V100H77.3481V94.8C77.3481 94.3733 77.2735 93.9947 77.1241 93.664C76.9748 93.3333 76.7188 93.0773 76.3561 92.896C76.0041 92.704 75.5188 92.608 74.9001 92.608C73.9615 92.608 73.2735 92.88 72.8361 93.424C72.4095 93.968 72.1961 94.7627 72.1961 95.808C72.1961 96.9067 72.3828 97.6747 72.7561 98.112C73.1295 98.5493 73.6628 98.768 74.3561 98.768C74.5588 98.768 74.7561 98.7573 74.9481 98.736C75.1508 98.7147 75.3215 98.6827 75.4601 98.64V99.968C75.2788 100.032 75.0761 100.08 74.8521 100.112C74.6281 100.144 74.3615 100.16 74.0521 100.16ZM75.4214 90.048V88.576H74.1574V87.376H76.6214V88.832H80.0774L80.0134 90.048H75.4214ZM82.8134 100C82.3334 100 81.9547 99.8507 81.6774 99.552C81.4 99.2533 81.2614 98.864 81.2614 98.384V96.88C81.2614 96.4107 81.352 96 81.5334 95.648C81.7147 95.2853 82.0454 95.0347 82.5254 94.896L80.7974 94.464V92.672C81.224 92.2987 81.784 91.9627 82.4774 91.664C83.1814 91.3547 84.0027 91.2 84.9414 91.2C86.2107 91.2 87.1867 91.4667 87.8694 92C88.552 92.5227 88.8934 93.4027 88.8934 94.64V100H87.1494V94.592C87.1494 93.856 86.9734 93.344 86.6214 93.056C86.28 92.7573 85.6987 92.608 84.8774 92.608C84.344 92.608 83.848 92.6827 83.3894 92.832C82.9307 92.9813 82.568 93.1787 82.3014 93.424V93.712L84.1254 94.176V95.328C83.7094 95.4347 83.416 95.6053 83.2454 95.84C83.0747 96.0747 82.9894 96.4267 82.9894 96.896V97.936C82.9894 98.1813 83.0427 98.3573 83.1494 98.464C83.256 98.5707 83.4267 98.624 83.6614 98.624H84.5414V100H82.8134ZM82.2259 90.048L82.3059 88.832H86.2739C86.2632 88.7893 86.2579 88.7413 86.2579 88.688C86.2472 88.624 86.2419 88.5547 86.2419 88.48C86.2419 88.1707 86.3645 87.888 86.6099 87.632C86.8552 87.376 87.2072 87.248 87.6659 87.248C88.1779 87.248 88.5512 87.392 88.7859 87.68C89.0099 87.9573 89.1219 88.2667 89.1219 88.608C89.1219 89.0027 88.9939 89.344 88.7379 89.632C88.4819 89.9093 88.1032 90.048 87.6019 90.048H82.2259ZM87.6819 89.232C87.8739 89.232 88.0285 89.1733 88.1459 89.056C88.2525 88.9387 88.3059 88.7947 88.3059 88.624C88.3059 88.4427 88.2472 88.2933 88.1299 88.176C88.0125 88.048 87.8632 87.984 87.6819 87.984C87.5112 87.984 87.3672 88.0427 87.2499 88.16C87.1219 88.2773 87.0579 88.432 87.0579 88.624C87.0579 88.7947 87.1165 88.9387 87.2339 89.056C87.3512 89.1733 87.5005 89.232 87.6819 89.232ZM94.3219 100.16C94.0765 100.16 93.8045 100.144 93.5059 100.112C93.2072 100.08 92.9459 100.027 92.7219 99.952L90.2899 94.032H91.9859L93.9539 98.832C94.8712 98.8747 95.5379 98.6133 95.9539 98.048C96.3699 97.472 96.5779 96.592 96.5779 95.408C96.5779 94.7147 96.5139 94.1707 96.3859 93.776C96.2579 93.3707 96.0392 93.088 95.7299 92.928C95.4312 92.7573 95.0152 92.672 94.4819 92.672H93.8739V91.36H94.7059C95.9432 91.36 96.8445 91.6907 97.4099 92.352C97.9752 93.0133 98.2579 94.0267 98.2579 95.392C98.2579 96.5227 98.0872 97.44 97.7459 98.144C97.4045 98.8373 96.9352 99.3493 96.3379 99.68C95.7512 100 95.0792 100.16 94.3219 100.16ZM106.257 100.16C105.947 100.16 105.606 100.139 105.233 100.096C104.859 100.064 104.502 100.011 104.161 99.936C103.83 99.8613 103.553 99.7813 103.329 99.696V98.176C103.755 98.3467 104.193 98.4747 104.641 98.56C105.099 98.6347 105.558 98.672 106.017 98.672C106.849 98.672 107.467 98.5493 107.873 98.304C108.278 98.0587 108.481 97.6267 108.481 97.008C108.481 96.4533 108.294 96.0533 107.921 95.808C107.558 95.5627 107.035 95.44 106.353 95.44H104.801L104.945 94.144H106.241C107.595 94.144 108.273 93.6107 108.273 92.544C108.273 92.0213 108.091 91.6373 107.729 91.392C107.377 91.1467 106.806 91.024 106.017 91.024C105.579 91.024 105.137 91.0667 104.689 91.152C104.251 91.2373 103.862 91.3547 103.521 91.504V90.016C103.841 89.888 104.257 89.776 104.769 89.68C105.281 89.584 105.787 89.536 106.289 89.536C107.547 89.536 108.481 89.8027 109.089 90.336C109.707 90.8693 110.017 91.552 110.017 92.384C110.017 92.896 109.889 93.376 109.633 93.824C109.387 94.272 108.998 94.592 108.465 94.784C109.083 94.944 109.531 95.232 109.809 95.648C110.097 96.064 110.241 96.5547 110.241 97.12C110.241 98.1547 109.878 98.9227 109.153 99.424C108.427 99.9147 107.462 100.16 106.257 100.16ZM117.345 100C116.758 100 116.332 99.856 116.065 99.568C115.798 99.28 115.665 98.8693 115.665 98.336V91.36H117.393V97.904C117.393 98.384 117.628 98.624 118.097 98.624H118.833V100H117.345ZM125.243 100.16C124.593 100.16 124.022 100.059 123.531 99.856C123.051 99.6533 122.614 99.3867 122.219 99.056L122.123 100H120.539V91.36H122.283V97.728C122.561 98.0267 122.907 98.2773 123.323 98.48C123.739 98.672 124.187 98.768 124.667 98.768C125.265 98.768 125.713 98.6293 126.011 98.352C126.31 98.064 126.459 97.5947 126.459 96.944V91.36H128.187V97.024C128.187 98.0267 127.926 98.8 127.403 99.344C126.881 99.888 126.161 100.16 125.243 100.16ZM129.907 100V98.64H131.379V100H129.907ZM136.702 100.16C135.934 100.16 135.251 100.069 134.654 99.888C134.057 99.7067 133.582 99.4187 133.23 99.024C132.889 98.6293 132.718 98.1067 132.718 97.456C132.718 97.0187 132.819 96.6347 133.022 96.304C133.225 95.9627 133.523 95.696 133.918 95.504C133.587 95.376 133.31 95.1573 133.086 94.848C132.873 94.5387 132.766 94.1547 132.766 93.696C132.766 92.8747 133.017 92.256 133.518 91.84C134.03 91.4133 134.681 91.2 135.47 91.2C135.779 91.2 136.046 91.2213 136.27 91.264C136.494 91.296 136.697 91.344 136.878 91.408V92.736C136.569 92.6507 136.206 92.608 135.79 92.608C135.363 92.608 135.033 92.6933 134.798 92.864C134.563 93.0347 134.446 93.312 134.446 93.696C134.446 94.1013 134.579 94.3947 134.846 94.576C135.113 94.7467 135.481 94.832 135.95 94.832H136.862L136.942 96.128H135.918C134.905 96.128 134.398 96.5707 134.398 97.456C134.398 97.8933 134.579 98.224 134.942 98.448C135.305 98.6613 135.865 98.768 136.622 98.768C138.126 98.768 138.878 98.1547 138.878 96.928V91.36H140.606V96.72C140.606 97.8827 140.281 98.7467 139.63 99.312C138.979 99.8773 138.003 100.16 136.702 100.16ZM142.313 100V98.64H143.785V100H142.313ZM148.86 100V99.136C149.137 98.4853 149.521 97.8987 150.012 97.376C150.513 96.8533 151.047 96.3467 151.612 95.856C152.039 95.4827 152.391 95.168 152.668 94.912C152.956 94.6453 153.18 94.4053 153.34 94.192C153.5 93.9787 153.612 93.76 153.676 93.536C153.74 93.3013 153.772 93.0293 153.772 92.72C153.772 92.1653 153.612 91.744 153.292 91.456C152.972 91.168 152.439 91.024 151.692 91.024C151.287 91.024 150.871 91.0667 150.444 91.152C150.028 91.2373 149.628 91.3547 149.244 91.504V89.968C149.617 89.84 150.06 89.7387 150.572 89.664C151.084 89.5787 151.569 89.536 152.028 89.536C153.18 89.536 154.049 89.8187 154.636 90.384C155.223 90.9493 155.516 91.7227 155.516 92.704C155.516 93.1947 155.431 93.632 155.26 94.016C155.089 94.3893 154.855 94.7467 154.556 95.088C154.257 95.4187 153.911 95.76 153.516 96.112C153.025 96.5387 152.561 96.9547 152.124 97.36C151.697 97.7547 151.351 98.1867 151.084 98.656H155.628V100H148.86ZM159.913 100.16C159.454 100.16 158.953 100.123 158.409 100.048C157.865 99.9733 157.411 99.856 157.049 99.696V98.176C157.422 98.336 157.849 98.4587 158.329 98.544C158.809 98.6293 159.262 98.672 159.689 98.672C160.51 98.672 161.113 98.5333 161.497 98.256C161.891 97.968 162.089 97.4987 162.089 96.848C162.089 96.2507 161.95 95.808 161.673 95.52C161.395 95.232 160.851 95.088 160.041 95.088H157.001V94.032L157.273 89.696H163.129L162.985 91.04H158.745L158.569 93.744H160.312C161.539 93.744 162.435 94.0053 163.001 94.528C163.566 95.0507 163.849 95.8347 163.849 96.88C163.849 97.8933 163.518 98.6933 162.857 99.28C162.195 99.8667 161.214 100.16 159.913 100.16ZM169.139 100.16C167.848 100.16 166.872 99.84 166.211 99.2C165.56 98.56 165.235 97.552 165.235 96.176V93.856C165.235 93.0027 165.411 92.2507 165.763 91.6C166.115 90.9493 166.616 90.4427 167.267 90.08C167.918 89.7173 168.691 89.536 169.587 89.536C170.11 89.536 170.563 89.568 170.947 89.632C171.342 89.696 171.704 89.7867 172.035 89.904V91.392C171.704 91.2747 171.347 91.184 170.963 91.12C170.59 91.056 170.168 91.024 169.699 91.024C168.739 91.024 168.03 91.2533 167.571 91.712C167.112 92.16 166.883 92.7627 166.883 93.52V94.16C167.256 93.8827 167.683 93.68 168.163 93.552C168.654 93.4133 169.096 93.344 169.491 93.344C170.696 93.344 171.587 93.6373 172.163 94.224C172.739 94.8107 173.027 95.6427 173.027 96.72C173.027 97.744 172.712 98.576 172.083 99.216C171.454 99.8453 170.472 100.16 169.139 100.16ZM169.155 98.848C169.923 98.848 170.499 98.6613 170.883 98.288C171.267 97.9147 171.459 97.4133 171.459 96.784C171.459 96.1227 171.299 95.6107 170.979 95.248C170.67 94.8747 170.088 94.688 169.235 94.688C168.808 94.688 168.387 94.7627 167.971 94.912C167.566 95.0507 167.203 95.2373 166.883 95.472V96.576C166.883 98.0907 167.64 98.848 169.155 98.848ZM179.239 100V97.744H174.087V96.512L179.447 89.696H180.967V96.336H182.023V97.744H180.967V100H179.239ZM175.783 96.384H179.511V91.68L175.783 96.384Z" fill="white"/>
<path d="M257 115C257 112.791 258.791 111 261 111H389C391.209 111 393 112.791 393 115V155C393 157.209 391.209 159 389 159H261C258.791 159 257 157.209 257 155V115Z" fill="#282828"/>
<path d="M289.73 143C288.997 143 288.463 142.82 288.13 142.46C287.797 142.1 287.63 141.587 287.63 140.92V132.2H289.79V140.38C289.79 140.98 290.083 141.28 290.67 141.28H291.59V143H289.73ZM293.903 143V139.1C293.903 138.513 294.016 138 294.243 137.56C294.47 137.107 294.883 136.793 295.483 136.62L293.323 136.08V133.84C293.856 133.373 294.556 132.953 295.423 132.58C296.303 132.193 297.33 132 298.503 132C300.09 132 301.31 132.333 302.163 133C303.016 133.653 303.443 134.753 303.443 136.3V143H301.263V136.24C301.263 135.32 301.043 134.68 300.603 134.32C300.176 133.947 299.45 133.76 298.423 133.76C297.756 133.76 297.136 133.853 296.563 134.04C295.99 134.227 295.536 134.473 295.203 134.78V135.14L297.483 135.72V137.16C296.963 137.293 296.596 137.507 296.383 137.8C296.17 138.093 296.063 138.533 296.063 139.12V143H293.903ZM297.589 130.58C296.815 130.58 296.202 130.38 295.749 129.98C295.295 129.58 295.069 129.013 295.069 128.28C295.069 127.547 295.302 126.96 295.769 126.52C296.222 126.08 296.875 125.86 297.729 125.86H302.649L302.549 127.14H297.929C297.475 127.14 297.142 127.227 296.929 127.4C296.702 127.573 296.589 127.867 296.589 128.28C296.589 128.987 296.969 129.34 297.729 129.34C298.115 129.34 298.389 129.267 298.549 129.12C298.709 128.96 298.789 128.753 298.789 128.5V128.08H300.129V128.5C300.129 128.793 300.209 129 300.369 129.12C300.515 129.227 300.742 129.28 301.049 129.28H302.309V130.54H300.909C300.589 130.54 300.295 130.493 300.029 130.4C299.749 130.293 299.555 130.133 299.449 129.92C299.315 130.133 299.062 130.3 298.689 130.42C298.302 130.527 297.935 130.58 297.589 130.58ZM310.929 143.2C309.382 143.2 308.169 142.833 307.289 142.1C306.422 141.367 305.989 140.267 305.989 138.8V132.2H308.169V138.88C308.169 139.773 308.402 140.427 308.869 140.84C309.349 141.253 310.035 141.46 310.929 141.46C311.835 141.46 312.522 141.253 312.989 140.84C313.469 140.427 313.709 139.773 313.709 138.88V132.2H315.869V138.8C315.869 140.267 315.435 141.367 314.569 142.1C313.702 142.833 312.489 143.2 310.929 143.2ZM318.41 143V136.16C318.41 134.853 318.804 133.833 319.59 133.1C320.377 132.367 321.617 132 323.31 132C325.017 132 326.25 132.367 327.01 133.1C327.784 133.833 328.17 134.853 328.17 136.16V143H325.99V135.96C325.99 135.2 325.757 134.647 325.29 134.3C324.824 133.94 324.164 133.76 323.31 133.76C322.417 133.76 321.737 133.94 321.27 134.3C320.817 134.647 320.59 135.2 320.59 135.96V138.18C321.177 137.7 321.877 137.46 322.69 137.46H323.99L324.07 139.2H322.63C321.817 139.2 321.137 139.427 320.59 139.88V143H318.41ZM325.755 148.22C325.022 148.22 324.448 148.053 324.035 147.72C323.608 147.4 323.395 147 323.395 146.52V145.5H322.315L322.395 144.14H324.955V146.16C324.955 146.6 325.222 146.82 325.755 146.82C326.302 146.82 326.575 146.6 326.575 146.16V144.14H328.155V146.3C328.155 146.82 327.955 147.267 327.555 147.64C327.155 148.027 326.555 148.22 325.755 148.22ZM335.655 143.2C334.108 143.2 332.895 142.833 332.015 142.1C331.148 141.367 330.715 140.267 330.715 138.8V132.2H332.895V138.88C332.895 139.773 333.128 140.427 333.595 140.84C334.075 141.253 334.762 141.46 335.655 141.46C336.562 141.46 337.248 141.253 337.715 140.84C338.195 140.427 338.435 139.773 338.435 138.88V129H340.595V138.8C340.595 140.267 340.162 141.367 339.295 142.1C338.428 142.833 337.215 143.2 335.655 143.2ZM347.177 143.2C346.324 143.2 345.517 143.12 344.757 142.96C344.01 142.8 343.384 142.613 342.877 142.4V136.84H347.157L347.257 138.5H344.977V141.12C345.284 141.227 345.63 141.313 346.017 141.38C346.417 141.433 346.804 141.46 347.177 141.46C348.364 141.46 349.197 141.18 349.677 140.62C350.17 140.047 350.417 139.053 350.417 137.64C350.417 136.653 350.297 135.88 350.057 135.32C349.817 134.747 349.417 134.347 348.857 134.12C348.31 133.88 347.564 133.76 346.617 133.76C346.044 133.76 345.444 133.8 344.817 133.88C344.19 133.96 343.597 134.093 343.037 134.28V132.6C343.597 132.413 344.237 132.267 344.957 132.16C345.69 132.053 346.424 132 347.157 132C349.05 132 350.417 132.48 351.257 133.44C352.097 134.387 352.517 135.787 352.517 137.64C352.517 139.453 352.097 140.833 351.257 141.78C350.417 142.727 349.057 143.2 347.177 143.2ZM358.881 143.2C358.574 143.2 358.234 143.18 357.861 143.14C357.488 143.1 357.161 143.033 356.881 142.94L353.841 135.54H355.961L358.421 141.54C359.568 141.593 360.401 141.267 360.921 140.56C361.441 139.84 361.701 138.74 361.701 137.26C361.701 136.393 361.621 135.713 361.461 135.22C361.301 134.713 361.028 134.36 360.641 134.16C360.268 133.947 359.748 133.84 359.081 133.84H358.321V132.2H359.361C360.908 132.2 362.034 132.613 362.741 133.44C363.448 134.267 363.801 135.533 363.801 137.24C363.801 138.653 363.588 139.8 363.161 140.68C362.734 141.547 362.148 142.187 361.401 142.6C360.668 143 359.828 143.2 358.881 143.2Z" fill="white"/>
<defs>
<linearGradient id="paint0_linear_914_652067" x1="208.5" y1="0" x2="208.5" y2="181" gradientUnits="userSpaceOnUse">
<stop stop-color="#E5D346"/>
<stop offset="0.984375" stop-color="#E5D346" stop-opacity="0.76"/>
</linearGradient>
</defs>
</svg>
